<?xml version="1.0" encoding="utf-8"?>
<!-- Generator: Adobe Illustrator 19.0.1, SVG Export Plug-In . SVG Version: 6.00 Build 0)  -->
<svg version="1.1" xmlns="http://www.w3.org/2000/svg" xmlns:xlink="http://www.w3.org/1999/xlink" x="0px" y="0px"
	 viewBox="0 0 501.9 94.9" style="enable-background:new 0 0 501.9 94.9;" xml:space="preserve">
<style type="text/css">
	.st0{fill:#5A6A95;}
	.st1{fill:#7A92C2;}
	.st2{fill:#272B2E;}
	.st3{fill:#FFFFFF;}
	.st4{opacity:0.5;fill:#FFFFFF;}
</style>
<g id="Guides">
</g>
<g id="wowCarry">
	<path class="st0" d="M12,8.8c0.1,0.3,0.2,0.5,0.3,0.7c0,0,0.2,0.4,0.3,0.7c1.7,3.5,3.3,7.3,3.3,7.3c0.9,2,3.5,6.5,11,16.8
		c0,0-1.5,0.4-2.6,1.3c-0.5,0.4-0.6,0.9-1,1.1c-2.5,1.5-5,3.1-7.5,4.6c-0.1,0.1-0.5,0-0.7,0.3c-0.3,0.3,0,0.9-0.1,0.9
		c-0.5,0.2-4.3-7.8-4.3-7.8c-2.1-4.3-3.1-6.5-4-9c-1.5-4-2.3-6-2.6-8.7C3.6,11.8,5.4,6.5,8.1,2c0,0,1.9,2.7,2,3
		C10.7,6.2,11.4,7.5,12,8.8z"/>
	<path class="st1" d="M6.8,25.8C8.6,24,10,21.7,12,20c0.6-0.5,1.2-1,1.9-1.4c0.6-0.3,1.7-0.3,1.8-1.2c0-0.3-0.1-0.6-0.2-0.9
		c-1.1-2.7-2.3-5.3-3.6-7.9C11.3,7.3,10.6,6,10,4.7C9.9,4.6,8.2,1.6,8,2c-2.7,4.6-4.5,9.8-3.9,15.1C4.5,20.1,5.6,23,6.8,25.8
		C6.8,25.8,6.8,25.8,6.8,25.8z"/>
	<path class="st2" d="M17.6,72.6c-1.4,0.5-1.4,0.4-2.2,0.6c-0.5,0.1-1,0.6-1.3,0.4c-0.2-0.1-0.1-0.3-0.3-0.4
		c-0.1-0.1-0.4-0.2-1.1,0.1c-0.8,0.3-1.3,0.8-1.6,1c-0.9,0.9-1.4,1.3-1.6,1.9c-0.2,0.8,0,1.7,0.6,2.3c0.9,1,2.3,0.9,3.3,0.9
		c1.5-0.1,2.5-0.6,3.1-0.9c0.3-0.2,4.7-2.1,9.2-2c2.2,0,3.3,0.5,4,1.3c0.4,0.4,0.5,0.9,0.6,1.2c0.2,1.4-1.1,2.6-1.4,2.8
		c0.5,0.3,1.6,1,2.2,2.3c0.9,1.9,0.7,4.6-1.1,6.3c-1.8,1.7-4.1,1.4-4.5,1.3c0.3,0.4,1.5,1.5,3.3,1.6c2.6,0.2,4.2-2,4.5-2.5
		c1.7-2.3,1.2-5.1,0.9-6.2c-0.2-0.8-0.4-1.7-1.1-2.3c-0.7-0.6-1.2-0.5-1.5-1.1c-0.3-0.4-0.3-1.3,0.8-2.8c0.5,0.8,0.9,1.5,1.2,2
		c0.4,0.7,0.5,0.9,0.7,1c0.8,0.7,1.8,0.7,2.3,0.7c5.9,0.1,8.2-0.5,8.2-0.5c6.1-1.7,10.6-4.6,10.4-5.1c-0.1-0.3-1.3,0.1-1.7-0.5
		c-0.2-0.3-0.1-0.8,0-1c0.6-1.2,3.6-0.4,6.8-0.7c5.2-0.5,9-3.7,8.9-4.2c-0.1-0.2-1.1,0.1-1.8-0.5c-0.5-0.5-0.6-1.3-0.5-2
		c0.2-1,1.1-1.4,2.7-2.4c2.4-1.6,4.3-3.2,4-3.7c-0.1-0.2-0.7,0-1.2-0.5c-0.2-0.2-0.4-0.6-0.3-0.9c0.1-0.5,0.9-0.7,1-0.8
		c1.4-0.4,7.9-6.1,11.6-12.6c4.7-8.2,5.2-16,5.3-20.3c0.5-11.5-3-21.4-4.7-21.3c-0.9,0.1-1,2.8-4.1,5.8c-0.8,0.8-1.6,1.3-2,1.6
		C79.4,13,79.2,13,79.2,13c-0.8,0.5-7,14-20.9,46.3c-1.4,2.4-3,3.8-4.2,4.6c-2.1,1.5-2.6,1.5-6.1,3.2c-0.9,0.4-1.5,1.1-2.5,1.2
		c-1.9,0.3-2.5-1-4-1c-3.6-0.1-5.2,7.1-8.8,7c-1-0.1-1.5-0.4-3.4-0.8c-1.2-0.2-2,0.1-2.6-0.4c-0.7-0.6-0.3-1.3-0.9-1.9
		c-0.8-0.9-2.7-0.4-4-0.1c-0.4,0.1-0.7,0.2-1.2,0.4C19.1,71.9,19,72.2,17.6,72.6z"/>
	<path class="st3" d="M62.1,61.1c-0.3,0.1-1.9,0.3-2.8-0.6c-0.3-0.3-0.7-1-0.5-1.3c0.1-0.1,0.2-0.1,0.4-0.1
		c-0.2-0.2-0.4-0.5-0.8-0.8c-2-1.4-4.5-0.1-9.5,0c-1.2,0-2.4,0.1-3.5,0.3c-4.1,0.6-8,2.3-11.7,3.9c-1.9,0.8-6.8,3.1-11.8,5
		c-8,3.2-10.8,3.7-13.2,3.8c-3.3,0.2-5.9-0.3-7.6-0.6c2.3,2.8,4.4,3.7,6,4.1c2.2,0.5,3.3-0.2,7.2-0.4c2.8-0.1,6.6,0.5,6.7,0.3
		c0-0.1-0.2-0.1-0.3-0.3c-0.2-0.4,0.3-0.9,0.4-1c1-1.1,4.6-0.2,5.2,0c1.9,0.5,1.9,0.8,3.7,1.2c1.5,0.3,2.8,0.3,3.4,0.4
		c0.7,0,1.4,0.1,2.3,0c0.9-0.1,2.6-0.2,4.5-1.1c0.6-0.3,1.5-0.7,2.5-1.4c-1-0.1-1.8-0.5-2-1.1c-0.2-0.5,0-1.1,0.4-1.5
		c1-1.1,3.2,0.5,8.1,0.5c0.5,0,0.9,0,1.4,0c2.9-0.2,5-1.5,6.4-2.4c-0.9-0.2-1.4-0.4-1.7-0.7c-0.3-0.2-0.5-0.4-0.5-0.6
		c-0.1-0.7,1.8-1.3,3.2-2.1C59,63.8,60.5,62.8,62.1,61.1z"/>
	<path class="st0" d="M6.6,63.3c0.5-0.9,0.7-1.4,0.8-1.8c0.5-2.8-2.3-4.2-2.5-7.1c-0.1-1.4,0.6-2.5,1.9-4.7c0.9-1.5,1.7-2.5,5.9-6.6
		c2.8-2.8,4.2-4.2,5-4.8c1.9-1.4,3-1.7,6.7-3.6c1.7-0.8,4-2,6.9-3.6C31,31.3,30,33,30.6,34c0.5,0.8,2,0.7,2.7,0.6
		c4.6-0.5,9.7-5.1,15.3-9.4c3.9-3.1,4.1-2.9,8.8-6.7c1.1-0.9,3.5-2.6,6.9-5.7c4.7-4.1,9.3-8.2,14-12.3c1.2,3.7,3.1,10.8,2.9,18.8
		c-0.1,1.9-0.2,5.4-1.3,9.7c-0.6,2.3-1.3,4-2,5.8c-0.8,2-2,5.1-4.1,8.7c-0.5,0.9-2.3,4-5.4,7.7c-4,4.9-7,8.6-10.3,8.5
		c-0.1,0-0.2,0-0.2,0c-1.9-0.1-2.7-0.5-3.6-0.5c-1.1,0-2.7,0.5-3,1.7c-0.3,1,0.4,2.4,1.7,3.2c-5,2-8.5,1.9-10.8,1.3
		c-1.7-0.4-3.4-0.9-5.8-0.7c-1.6,0.1-4.3,1.3-4.5,3.1c-0.1,1,0.4,1.8,0.6,2.1c0.9,1.2,2.2,1.5,2.5,1.5c-0.4,0.2-1,0.6-1.9,0.8
		c-2.3,0.6-4.3-0.3-5-0.5c-4.2-1.6-13.8-1.2-20.2,0.5c-0.7,0.2-2.6,1.2-4.4,0.5c-1-0.4-2.2-1.3-2.2-2.4c0-0.6,0.3-0.9,1.1-1.8
		C3.6,67.5,5.4,65.5,6.6,63.3z"/>
	<path class="st1" d="M33.4,34.5c-0.7,0.1-2.2,0.2-2.7-0.6c-0.7-1,0.4-2.7,0.5-2.8c-2.8,1.6-5.2,2.8-6.9,3.6
		c-3.7,1.8-4.8,2.2-6.7,3.6c-0.7,0.5-2.1,1.9-5,4.8c-4.1,4.1-4.9,5-5.9,6.6c-1.3,2.2-2,3.3-1.9,4.7c0.2,3,3,4.3,2.5,7.1
		c-0.1,0.4-0.3,0.9-0.8,1.8c-1.1,2.2-2.9,4.2-3.9,5.3c-0.8,0.9-1.1,1.2-1.1,1.8c0,0.8,0.6,1.5,1.4,1.9C2.8,71.7,3,71,3.7,70.4
		c2.4-2.2,5.3-4,6.7-7.1c0.8-1.7,1.1-3.4,1.3-5.2c0.2-1.8,0-2.5,0.1-3.5c0.2-3.6,3.2-6.2,6.1-8.9c2.8-2.6,5.5-5.4,9.5-5.5
		c2-0.1,4.1,0.4,6-0.2c1.6-0.4,3.2-1.2,4.5-2.2c2.7-2.1,3.4-5.2,4.7-8.1C39.3,32.3,36.2,34.2,33.4,34.5z"/>
	<path class="st0" d="M44,38.9c2-0.8,3.8-1.8,5.3-3.3c0.8-0.9,1.5-1.9,2.2-2.9c-0.8,0.6-1.4,1.1-1.8,1.4c-3.9,3.1-4.7,3.6-7.2,5.4
		C43.1,39.3,43.6,39.1,44,38.9z"/>
	<path class="st2" d="M3.8,74.1c0.3,0.2,0.7,0.5,0.8,0.4c0.1-0.1-0.4-0.5-0.6-1.2C4,73.1,4,73,3.9,72.8c-0.1-0.1-0.1-0.2-0.1-0.4
		c0-0.1,0-0.2,0.1-0.3c-0.3,0.1-0.5,0-0.6-0.1c-0.1-0.1-0.1-0.2-0.2-0.3c-0.2-0.2-0.3-0.3-0.4-0.3c-0.7-0.4-1.2-1-1.3-0.8
		c-0.1,0.1,0.1,0.7,0.3,1c0.3,0.5,0.5,0.7,2,2.3C3.7,74,3.8,74.1,3.8,74.1z"/>
	<path class="st1" d="M64.6,26.4c3.6,1.8,5.2,0.4,7,2.5c1.3,1.4,1,2.6,2.6,4.2c1.2,1.3,2.7,2,3.7,2.3c0.1-0.2,0.1-0.3,0.2-0.5
		c0.7-1.8,1.4-3.5,2-5.8c1.1-4.3,1.2-7.8,1.3-9.7c0.2-8-1.7-15.1-2.9-18.8c-4.7,4.1-9.3,8.2-14,12.3c-1.4,1.2-2.6,2.2-3.6,3
		c-1.6,1.3-3,2.9-3.4,2.7c0,0,0-0.1-0.1-0.1c-0.3,0.8-0.6,1.9-0.2,3.2C58.1,24.2,61.7,25,64.6,26.4z"/>
	<path class="st2" d="M56.7,27.4c-0.8,0.6-1.7,1.8-1,2.5c0.2,0.2,0.5,0.3,0.8,0.3c1,0.1,2-0.1,2.9-0.6c-0.3,3.2-2.8,6-5.7,6.8
		c-0.5,0.1-1,0.2-1.4,0.6s-0.5,1.1-0.1,1.4c0.2,0.1,0.4,0.1,0.7,0.1c1.5-0.1,3-0.5,4.4-1.1c0.2,1.4-0.6,2.8-1.6,3.8
		c-1,1-2.3,1.6-3.4,2.4c-1.3,1-2.4,2.2-3.3,3.5c-0.5,0.9-1,1.9-0.7,2.9c0.2,0.7,0.8,1.2,1.4,1.5c3.6,2.3,8.6,1.7,12.5-0.6
		c3.8-2.3,6.7-6.2,8.9-10.2c3.4-6.2,5.6-13,6.4-20c0.2-1.5,1.2-9.1-0.5-9.1c-1,0-3.8,2.9-4.7,3.6c-1.6,1.3-3.2,2.5-4.8,3.8
		C63.8,21.9,60.3,24.7,56.7,27.4z"/>
	<path class="st2" d="M1.5,69.8c0.1-0.1,0.2-0.2,0.5-0.3c0.6-0.2,2.2-0.3,2.7,0.7c0.3,0.6,0.1,1.4,0,1.6c-0.1,0.3-0.3,0.8-0.7,0.9
		c-0.5,0.2-0.9-0.1-1.3-0.3c-0.2-0.1-1.4-0.8-1.4-1.9C1.2,70.5,1.2,70.1,1.5,69.8z"/>
	<path class="st3" d="M15.8,64.9c0,0.1,0,0.1,0,0.2c0,0.1,0,0.2,0.1,0.3c0.1,0.1,0.3,0.2,0.5,0.2c3.5,0.2,7-1,9.5-3.5
		c1.1-1.1,2.3-2.4,1-3.7c-0.9-1-2.4-1.5-3.7-1.8c-0.3-0.1-0.6-0.1-0.9-0.1c-1.9,0-3.7,1.2-4.8,2.8C16.5,60.8,15.8,63,15.8,64.9z"/>
	<path class="st0" d="M24.9,87.2c-0.1,0.5-0.2,1.4,0,2.5c0.2,1.2,0.4,2,1,2.4c0.7,0.4,1.6,0.2,2.4,0c0.7-0.2,1.2-0.5,1.3-0.5
		c0.2-0.1,0.9-0.5,1.5-1.4c1-1.3,1-2.7,1.1-3.2c0-0.5,0-1.6-0.5-2.8c-0.4-0.8-0.9-1.3-1-1.4c-0.4-0.4-0.9-0.8-1.5-0.9
		c-1.7-0.2-3.2,2.3-3.3,2.5c-0.3,0.5-0.5,1-0.6,1.2C25.2,85.8,25,86.4,24.9,87.2z"/>
	<path class="st1" d="M24.8,87.7c-0.1,0.6,0,1,0.1,1.9c0.2,1.5,0.5,1.9,0.6,2c0.2,0.2,0.4,0.5,0.9,0.6c0.8,0.2,1.5-0.5,2-0.9
		c0.3-0.3,1-0.9,1.3-2.1c0-0.2,0.4-1.6-0.3-3c-0.3-0.6-0.6-0.9-0.9-1.3c-0.5-0.5-0.7-0.8-1-0.8c-0.7-0.1-1.4,1-1.8,1.7
		C25.4,86.2,25,86.8,24.8,87.7z"/>
	<path class="st2" d="M17.6,60.9c0.1,0.4,0.2,1.1,0.7,1.8c0.3,0.5,0.6,0.9,1.1,1.1c0.2,0.1,0.3,0.1,0.7,0.1c0.5,0,1.1,0,1.8-0.4
		c0,0,0.1-0.1,0.2-0.1c0.6-0.4,0.8-1.1,1-1.5c0.2-0.4,0.5-1.3,0.3-2.4c0-0.3-0.3-2.3-1.4-2.6c-0.4-0.1-0.9,0.1-1.7,0.5
		c-0.5,0.2-0.9,0.5-1.1,0.7c-0.7,0.5-1.2,0.9-1.4,1.6C17.5,60.1,17.6,60.4,17.6,60.9z"/>
	<path class="st4" d="M23.4,60.2c0.2,0,0.3-0.1,0.4-0.2c0.1-0.1,0.1-0.2,0.2-0.4c0.1-0.4,0.3-1-0.1-1.3c-0.2-0.1-0.4-0.1-0.5-0.1
		c-0.7-0.1-1.1-0.1-1.5-0.1c-0.4,0-0.6,0.1-0.9,0.3c-0.1,0.1-0.4,0.2-0.5,0.6C20.4,59,20.1,59.6,23.4,60.2z"/>
	<g>
		<path class="st1" d="M160.2,67.9h-8.8L144,46.8h-0.6l-7.7,21.1H127l-13.2-42.6h8.2l0.8,5.1l8.8,28.7h0.6l8.3-23.4l-3.2-10.5h8.4
			l1,5.9l9,28h0.7l9.9-28.3l1.2-5.5h7.7L160.2,67.9z"/>
		<path class="st1" d="M215.8,30.2c3.4,3.7,5.1,8.8,5.1,15.4c0,7.4-1.8,13-5.5,17c-3.7,4-8.9,6-15.6,6c-6.3,0-11.1-1.9-14.5-5.6
			c-3.4-3.7-5.1-9-5.1-15.9c0-7.1,1.8-12.7,5.5-16.5c3.7-3.9,8.9-5.8,15.6-5.8C207.6,24.7,212.4,26.5,215.8,30.2z M191.6,34.9
			c-1.9,2.3-2.8,6-2.8,11.2c0,5.7,0.9,9.8,2.8,12.2c1.9,2.4,4.8,3.7,8.9,3.7c4.1,0,7.2-1.1,9.1-3.4c1.9-2.3,2.9-6.1,2.9-11.3
			c0-5.7-0.9-9.7-2.8-12.2c-1.9-2.4-4.9-3.7-9.1-3.7C196.5,31.4,193.5,32.6,191.6,34.9z"/>
		<path class="st1" d="M273.2,67.9h-8.8L257,46.8h-0.6l-7.7,21.1H240l-13.2-42.6h8.2l0.8,5.1l8.8,28.7h0.6l8.3-23.4l-3.2-10.5h8.4
			l1,5.9l9,28h0.7l9.9-28.3l1.2-5.5h7.7L273.2,67.9z"/>
		<path class="st0" d="M332.4,16.4l-1.6,7.7l-0.9,0.3c-3.8-2.9-8-4.4-12.6-4.4c-5,0-8.8,1.7-11.4,5.1c-2.6,3.4-4,8.4-4,15.1
			c0,6.9,1.3,12.1,4,15.6c2.7,3.6,6.5,5.4,11.4,5.4c2.4,0,4.7-0.4,7.1-1.2c2.4-0.8,4.5-2,6.5-3.4l0.8,0.5l-0.7,8
			c-4.9,2.4-9.7,3.6-14.5,3.6c-7.7,0-13.5-2.4-17.7-7.1c-4.1-4.8-6.2-11.5-6.2-20.3c0-9.1,2.2-16.1,6.5-21
			c4.3-4.9,10.5-7.4,18.4-7.4C323.2,12.7,328.1,14,332.4,16.4z"/>
		<path class="st0" d="M375.4,67.9h-8.2l-1.1-5.3l-1.5-4.7l-9.5-0.1l-8.5,0.1l-1.6,4.3l-1.2,5.7h-8.1l15.9-42.6h9.5L375.4,67.9z
			 M362.4,51.6l-6-18.6h-0.6l-6.9,18.6l6.7,0.1L362.4,51.6z"/>
		<path class="st0" d="M418.2,65.9l-0.1,1c-2.9,0.9-5.5,1.4-7.7,1.5l-1.3-0.8c-4.1-6.7-7.1-11.6-8.8-14.6l-7.5,0.1v1.2l0.3,13.5H385
			l0.3-12.8L385,25.3l16.2-0.1c4.6,0,8.1,1.1,10.7,3.3c2.5,2.2,3.8,5.3,3.8,9.2c0,2.8-0.8,5.3-2.3,7.6c-1.5,2.3-3.6,4.1-6.3,5.6
			C410.3,55.8,414,60.8,418.2,65.9z M392.9,46.6l7.4,0.3c4.5-1.3,6.7-4.1,6.7-8.4c0-2.3-0.7-4-2-5.1c-1.4-1.1-3.4-1.7-6.2-1.8
			l-5.6,0.2L392.9,46.6z"/>
		<path class="st0" d="M461.4,65.9l-0.1,1c-2.9,0.9-5.5,1.4-7.7,1.5l-1.3-0.8c-4.1-6.7-7.1-11.6-8.8-14.6l-7.5,0.1v1.2l0.3,13.5
			h-8.2l0.3-12.8l-0.3-29.8l16.2-0.1c4.6,0,8.1,1.1,10.7,3.3c2.5,2.2,3.8,5.3,3.8,9.2c0,2.8-0.8,5.3-2.3,7.6
			c-1.5,2.3-3.6,4.1-6.3,5.6C453.5,55.8,457.2,60.8,461.4,65.9z M436.1,46.6l7.4,0.3c4.5-1.3,6.7-4.1,6.7-8.4c0-2.3-0.7-4-2-5.1
			c-1.4-1.1-3.4-1.7-6.2-1.8l-5.6,0.2L436.1,46.6z"/>
		<path class="st0" d="M485.5,56l0.3,11.9h-8.2l0.4-11.9l-0.1-2.4l-14.5-28.3h8.8l0.9,2.7l8.5,16.9h0.6l9.4-16.6l1.2-3.1h8.6
			l-15.9,28.1L485.5,56z"/>
	</g>
</g>
</svg>
