<svg width="34" height="34" viewBox="0 0 34 34" fill="none" xmlns="http://www.w3.org/2000/svg">
<path d="M12.3037 5C9.3552 5.16115 6.52602 6.20578 4.19178 7.9952C1.53001 13.1587 0.0962456 18.8557 0 24.6512C0 24.6512 2.4452 28.7984 8.87842 29C8.87842 29 9.95548 27.7328 10.8191 26.6384C8.77774 26.122 6.98074 24.9209 5.73459 23.24C5.73459 23.24 6.02568 23.4416 6.54966 23.7296C6.54966 23.7296 6.60788 23.7296 6.6661 23.7872L6.92808 23.9312C7.61341 24.2989 8.32341 24.6196 9.05308 24.8912C10.4367 25.4465 11.8736 25.8614 13.3419 26.1296C15.8331 26.5936 18.39 26.5936 20.8813 26.1296C22.3284 25.8652 23.7433 25.4501 25.1022 24.8912C26.2771 24.4669 27.4001 23.913 28.4498 23.24C27.1499 24.9483 25.2853 26.151 23.1809 26.6384C24.0542 27.704 25.1216 28.9424 25.1216 28.9424C31.5548 28.7408 34 24.5936 34 24.6224C33.8933 18.8352 32.453 13.1484 29.7888 7.9952C27.45 6.18751 24.6026 5.14113 21.6381 5L21.2306 5.4608C23.8816 6.14264 26.3535 7.38018 28.4789 9.0896C25.7705 7.63587 22.8065 6.70723 19.746 6.3536C17.7907 6.14038 15.8166 6.15971 13.8659 6.4112C13.6996 6.41637 13.534 6.43564 13.371 6.4688C11.0752 6.73619 8.83391 7.34801 6.72431 8.2832C5.64726 8.744 5.00685 9.0896 5.00685 9.0896C5.00685 9.0896 7.39384 6.8144 12.6142 5.3456L12.3425 5H12.3037ZM11.5565 15.6272C11.966 15.6357 12.3695 15.7253 12.7434 15.8907C13.1173 16.056 13.4539 16.2938 13.7334 16.59C14.0129 16.8862 14.2296 17.2348 14.3706 17.6152C14.5117 17.9956 14.5743 18.4001 14.5548 18.8048C14.5717 19.2069 14.5078 19.6082 14.3668 19.9857C14.2259 20.3632 14.0106 20.7092 13.7336 21.0039C13.4566 21.2985 13.1232 21.5358 12.7528 21.7021C12.3825 21.8685 11.9825 21.9605 11.5759 21.9728C10.7582 21.9403 9.98684 21.5888 9.43043 20.9951C8.87401 20.4014 8.57786 19.6139 8.60674 18.8048C8.58984 18.403 8.65334 18.0019 8.79358 17.6245C8.93382 17.2471 9.14804 16.9008 9.42394 16.6056C9.69984 16.3103 10.032 16.0719 10.4013 15.904C10.7706 15.7361 11.1698 15.642 11.5759 15.6272H11.5565ZM22.23 15.6272C23.0486 15.6622 23.8199 16.0158 24.3761 16.611C24.9323 17.2062 25.2281 17.9947 25.1992 18.8048C25.2161 19.2061 25.1525 19.6067 25.0122 19.9835C24.8718 20.3604 24.6574 20.706 24.3814 21.0005C24.1054 21.295 23.7732 21.5326 23.404 21.6994C23.0347 21.8663 22.6357 21.9592 22.23 21.9728C21.4123 21.9403 20.641 21.5888 20.0845 20.9951C19.5281 20.4014 19.232 19.6139 19.2608 18.8048C19.244 18.403 19.3075 18.0019 19.4477 17.6245C19.5879 17.2471 19.8022 16.9008 20.078 16.6056C20.3539 16.3103 20.6861 16.0719 21.0554 15.904C21.4247 15.7361 21.8239 15.642 22.23 15.6272Z" fill="#6D94C4"/>
</svg>
