<svg width="45" height="35" viewBox="0 0 45 35" fill="none" xmlns="http://www.w3.org/2000/svg">
<g clip-path="url(#clip0)">
<path d="M44.0843 34.5087V34.5997H44.1683C44.1869 34.5997 44.2028 34.5953 44.2143 34.5882C44.2249 34.5812 44.2311 34.5688 44.2311 34.5538C44.2311 34.5387 44.2249 34.5272 44.2143 34.5202C44.2028 34.5122 44.1869 34.5087 44.1683 34.5087H44.0843ZM44.1692 34.445C44.2125 34.445 44.2461 34.4548 44.27 34.4742C44.2939 34.4936 44.3054 34.5202 44.3054 34.5538C44.3054 34.5821 44.2965 34.605 44.2771 34.6236C44.2585 34.6413 44.232 34.6528 44.1966 34.6572L44.308 34.7854H44.2214L44.1179 34.6581H44.0843V34.7854H44.0118V34.445H44.1692ZM44.1471 34.903C44.1869 34.903 44.224 34.895 44.2576 34.88C44.2921 34.8649 44.3222 34.8446 44.3478 34.819C44.3735 34.7933 44.3938 34.7633 44.4088 34.7279C44.423 34.6934 44.4309 34.6563 44.4309 34.6165C44.4309 34.5767 44.423 34.5396 44.4088 34.5051C44.3938 34.4707 44.3735 34.4397 44.3478 34.4141C44.3222 34.3884 44.2921 34.3681 44.2576 34.3531C44.224 34.3389 44.1869 34.3319 44.1471 34.3319C44.1073 34.3319 44.0693 34.3389 44.0348 34.3531C43.9995 34.3681 43.9685 34.3884 43.9429 34.4141C43.9172 34.4397 43.8969 34.4707 43.8827 34.5051C43.8677 34.5396 43.8606 34.5767 43.8606 34.6165C43.8606 34.6563 43.8677 34.6934 43.8827 34.7279C43.8969 34.7633 43.9172 34.7933 43.9429 34.819C43.9685 34.8446 43.9995 34.8649 44.0348 34.88C44.0693 34.895 44.1073 34.903 44.1471 34.903ZM44.1471 34.2497C44.1993 34.2497 44.247 34.2594 44.293 34.2788C44.3381 34.2974 44.377 34.3239 44.4115 34.3575C44.4451 34.3902 44.4716 34.4291 44.491 34.4742C44.5105 34.5184 44.5202 34.5661 44.5202 34.6165C44.5202 34.6669 44.5105 34.7147 44.491 34.7589C44.4716 34.8031 44.4451 34.842 44.4115 34.8755C44.377 34.9083 44.3381 34.9348 44.293 34.9542C44.247 34.9737 44.1993 34.9834 44.1471 34.9834C44.0941 34.9834 44.0454 34.9737 43.9995 34.9542C43.9535 34.9348 43.9137 34.9083 43.8801 34.8755C43.8465 34.842 43.82 34.8031 43.8005 34.7589C43.7811 34.7147 43.7713 34.6669 43.7713 34.6165C43.7713 34.5661 43.7811 34.5184 43.8005 34.4742C43.82 34.4291 43.8465 34.3902 43.8801 34.3575C43.9137 34.3239 43.9535 34.2974 43.9995 34.2788C44.0454 34.2594 44.0941 34.2497 44.1471 34.2497ZM9.69915 32.9386C9.69915 32.2898 10.1244 31.7567 10.8194 31.7567C11.4834 31.7567 11.9317 32.2668 11.9317 32.9386C11.9317 33.6105 11.4834 34.1206 10.8194 34.1206C10.1244 34.1206 9.69915 33.5875 9.69915 32.9386ZM12.6885 32.9386V31.0928H11.8857V31.541C11.631 31.2086 11.2447 31 10.7195 31C9.68412 31 8.87245 31.8115 8.87245 32.9386C8.87245 34.0667 9.68412 34.8773 10.7195 34.8773C11.2447 34.8773 11.631 34.6687 11.8857 34.3363V34.7845H12.6885V32.9386ZM39.8182 32.9386C39.8182 32.2898 40.2435 31.7567 40.9385 31.7567C41.6034 31.7567 42.0508 32.2668 42.0508 32.9386C42.0508 33.6105 41.6034 34.1206 40.9385 34.1206C40.2435 34.1206 39.8182 33.5875 39.8182 32.9386ZM42.8085 32.9386V29.6103H42.0048V31.541C41.7501 31.2086 41.3638 31 40.8386 31C39.8032 31 38.9915 31.8115 38.9915 32.9386C38.9915 34.0667 39.8032 34.8773 40.8386 34.8773C41.3638 34.8773 41.7501 34.6687 42.0048 34.3363V34.7845H42.8085V32.9386ZM22.6539 31.7187C23.1712 31.7187 23.5036 32.0431 23.5885 32.6142H21.6725C21.7583 32.0811 22.0819 31.7187 22.6539 31.7187ZM22.6699 31C21.5876 31 20.8308 31.7876 20.8308 32.9386C20.8308 34.1126 21.6186 34.8773 22.7238 34.8773C23.2799 34.8773 23.7892 34.7385 24.2375 34.3602L23.844 33.7652C23.5346 34.0119 23.1402 34.1515 22.7698 34.1515C22.2525 34.1515 21.7813 33.912 21.6654 33.2472H24.4072C24.4152 33.1473 24.4232 33.0465 24.4232 32.9386C24.4152 31.7876 23.7043 31 22.6699 31ZM32.3638 32.9386C32.3638 32.2898 32.7891 31.7567 33.4841 31.7567C34.1481 31.7567 34.5964 32.2668 34.5964 32.9386C34.5964 33.6105 34.1481 34.1206 33.4841 34.1206C32.7891 34.1206 32.3638 33.5875 32.3638 32.9386ZM35.3532 32.9386V31.0928H34.5504V31.541C34.2949 31.2086 33.9094 31 33.3842 31C32.3488 31 31.5371 31.8115 31.5371 32.9386C31.5371 34.0667 32.3488 34.8773 33.3842 34.8773C33.9094 34.8773 34.2949 34.6687 34.5504 34.3363V34.7845H35.3532V32.9386ZM27.8298 32.9386C27.8298 34.0587 28.6097 34.8773 29.7998 34.8773C30.3559 34.8773 30.7264 34.7536 31.1278 34.4371L30.7423 33.7882C30.4408 34.0048 30.1242 34.1206 29.7759 34.1206C29.1349 34.1126 28.6636 33.6494 28.6636 32.9386C28.6636 32.2279 29.1349 31.7647 29.7759 31.7567C30.1242 31.7567 30.4408 31.8725 30.7423 32.0891L31.1278 31.4402C30.7264 31.1237 30.3559 31 29.7998 31C28.6097 31 27.8298 31.8186 27.8298 32.9386ZM38.1808 31C37.7175 31 37.416 31.2166 37.2073 31.541V31.0928H36.4115V34.7845H37.2153V32.715C37.2153 32.1041 37.4778 31.7647 38.003 31.7647C38.1657 31.7647 38.3355 31.7876 38.5052 31.8575L38.7528 31.1008C38.5751 31.0309 38.3434 31 38.1808 31ZM16.6593 31.3863C16.2729 31.1317 15.7406 31 15.1536 31C14.2181 31 13.616 31.4482 13.616 32.1819C13.616 32.7839 14.0643 33.1552 14.8901 33.271L15.2694 33.325C15.7097 33.3868 15.9175 33.5027 15.9175 33.7113C15.9175 33.9968 15.6239 34.1595 15.0758 34.1595C14.5196 34.1595 14.1182 33.9818 13.8476 33.7732L13.4692 34.3982C13.9095 34.7226 14.4657 34.8773 15.0678 34.8773C16.1341 34.8773 16.7521 34.3752 16.7521 33.6724C16.7521 33.0235 16.2658 32.684 15.4621 32.5682L15.0837 32.5134C14.7362 32.4675 14.4577 32.3985 14.4577 32.151C14.4577 31.8805 14.7203 31.7187 15.1606 31.7187C15.6319 31.7187 16.0881 31.8964 16.3118 32.0352L16.6593 31.3863ZM27.0182 31C26.5549 31 26.2534 31.2166 26.0456 31.541V31.0928H25.2498V34.7845H26.0527V32.715C26.0527 32.1041 26.3153 31.7647 26.8405 31.7647C27.0031 31.7647 27.1729 31.7876 27.3427 31.8575L27.5902 31.1008C27.4125 31.0309 27.1809 31 27.0182 31ZM20.1668 31.0928H18.8538V29.9727H18.0421V31.0928H17.2932V31.8265H18.0421V33.5106C18.0421 34.3672 18.3746 34.8773 19.3242 34.8773C19.6725 34.8773 20.0739 34.7695 20.3286 34.5918L20.0969 33.904C19.8573 34.0428 19.5947 34.1126 19.3861 34.1126C18.9847 34.1126 18.8538 33.8651 18.8538 33.4947V31.8265H20.1668V31.0928ZM8.16247 34.7845V32.4675C8.16247 31.5949 7.60633 31.0079 6.70978 31C6.23852 30.992 5.75223 31.1388 5.41183 31.6568C5.15719 31.2475 4.75578 31 4.19168 31C3.79734 31 3.41185 31.1158 3.11035 31.5481V31.0928H2.30664V34.7845H3.11742V32.738C3.11742 32.0971 3.47285 31.7567 4.02192 31.7567C4.55507 31.7567 4.82474 32.1041 4.82474 32.73V34.7845H5.63641V32.738C5.63641 32.0971 6.00687 31.7567 6.54002 31.7567C7.0882 31.7567 7.3508 32.1041 7.3508 32.73V34.7845H8.16247Z" fill="#EEEEEE"/>
<path d="M44.5792 22.5073V21.9681H44.4387L44.276 22.3385L44.1142 21.9681H43.9727V22.5073H44.0726V22.1007L44.2247 22.4516H44.3281L44.4802 22.0998V22.5073H44.5792ZM43.6871 22.5073V22.06H43.8675V21.969H43.4077V22.06H43.5881V22.5073H43.6871Z" fill="#F79410"/>
<path d="M28.5933 24.8266H16.4258V2.96289H28.5933V24.8266Z" fill="#FF5F00"/>
<path d="M17.205 13.893C17.205 9.45784 19.2819 5.50712 22.5162 2.96112C20.1511 1.09936 17.1661 -0.0118582 13.9221 -0.0118582C6.24225 -0.0118582 0.0168457 6.21346 0.0168457 13.893C0.0168457 21.5725 6.24225 27.7979 13.9221 27.7979C17.1661 27.7979 20.1511 26.6866 22.5162 24.8249C19.2819 22.2789 17.205 18.3282 17.205 13.893Z" fill="#EB001B"/>
<path d="M45.0034 13.893C45.0034 21.5725 38.778 27.7979 31.0981 27.7979C27.8541 27.7979 24.8692 26.6866 22.5032 24.8249C25.7383 22.2789 27.8152 18.3282 27.8152 13.893C27.8152 9.45784 25.7383 5.50712 22.5032 2.96112C24.8692 1.09936 27.8541 -0.0118582 31.0981 -0.0118582C38.778 -0.0118582 45.0034 6.21346 45.0034 13.893Z" fill="#F79E1B"/>
</g>
<defs>
<clipPath id="clip0">
<rect width="45" height="35" fill="white"/>
</clipPath>
</defs>
</svg>
