<svg width="34" height="34" viewBox="0 0 34 34" fill="none" xmlns="http://www.w3.org/2000/svg">
<path d="M32.1147 4.47683C30.8257 5.24872 29.4145 5.78748 27.944 6.06913C27.3246 5.41376 26.5809 4.89257 25.7578 4.53699C24.9347 4.18142 24.0492 3.99882 23.1547 4.00022C22.2993 3.99308 21.4509 4.15729 20.6581 4.48344C19.8653 4.8096 19.1436 5.2913 18.5343 5.90098C17.925 6.51067 17.4401 7.23638 17.1073 8.03658C16.7744 8.83678 16.6002 9.69577 16.5947 10.5644C16.5916 11.0679 16.649 11.5698 16.7653 12.0592C14.1639 11.9335 11.6168 11.2589 9.28631 10.0784C6.9558 8.89789 4.893 7.23734 3.22933 5.20257C2.64531 6.2022 2.33933 7.34402 2.344 8.50633C2.34348 9.59177 2.61068 10.6601 3.12121 11.6137C3.63174 12.5673 4.36933 13.3759 5.26667 13.9656C4.22488 13.9317 3.20551 13.6497 2.29067 13.1424V13.2291C2.30065 14.7549 2.83123 16.2301 3.79203 17.4033C4.75282 18.5765 6.08442 19.3752 7.56 19.6633C6.99276 19.8161 6.4082 19.8926 5.82133 19.8907C5.40619 19.8892 4.99204 19.8493 4.584 19.7716C5.01493 21.0834 5.83659 22.2269 6.93535 23.0438C8.03412 23.8608 9.3557 24.3109 10.7173 24.3319C8.38163 26.1574 5.51538 27.1441 2.568 27.1373C2.04421 27.1361 1.52084 27.1071 1 27.0507C4.01399 28.9812 7.50587 30.003 11.0693 29.997C13.5124 30.0416 15.9398 29.5916 18.2098 28.6732C20.4798 27.7549 22.547 26.3866 24.2906 24.6482C26.0342 22.9098 27.4194 20.8361 28.3653 18.5482C29.3113 16.2603 29.799 13.804 29.8 11.3226C29.8 11.041 29.8 10.7594 29.8 10.4777C31.0557 9.54433 32.139 8.39287 33 7.07651C31.8054 7.62701 30.5361 7.99215 29.2347 8.1597C30.6137 7.3402 31.641 6.0265 32.1147 4.47683Z" fill="#6D94C4"/>
</svg>
