<svg width="110" height="113" viewBox="0 0 110 113" fill="none" xmlns="http://www.w3.org/2000/svg">
<g filter="url(#filter0_d)">
<path d="M98.5541 30.6659C100.101 28.6523 101.441 26.4881 102.554 24.2059C104.497 20.0962 105.193 15.5068 104.554 11.0059C104.353 9.57938 103.694 8.25665 102.677 7.23615C101.66 6.21564 100.34 5.55239 98.9141 5.34591C97.9099 5.17449 96.893 5.08752 95.8741 5.08591C92.416 5.12082 89.0057 5.89837 85.8742 7.3659C83.5919 8.47888 81.4277 9.81898 79.4142 11.3659C68.8788 5.47113 56.5664 3.5872 44.7504 6.06196C32.9343 8.53671 22.4127 15.203 15.1282 24.83C7.84369 34.457 4.28827 46.3945 5.11842 58.4383C5.94857 70.4821 11.1082 81.8189 19.6447 90.3553C28.1812 98.8918 39.5179 104.051 51.5618 104.882C63.6056 105.712 75.5431 102.156 85.17 94.8718C94.797 87.5873 101.463 77.0657 103.938 65.2497C106.413 53.4337 104.529 41.1213 98.6341 30.5859L98.5541 30.6659ZM87.5542 10.9659C90.1573 9.74037 92.9969 9.09873 95.8741 9.0859C96.6984 9.08001 97.5216 9.14694 98.3341 9.2859C98.9431 9.35098 99.5113 9.62265 99.9444 10.0557C100.377 10.4887 100.649 11.057 100.714 11.6659C101.205 15.346 100.621 19.0896 99.0341 22.4459C98.2465 24.0675 97.3232 25.6197 96.2741 27.0859C95.5141 28.1659 94.6542 29.2659 93.6741 30.4059C92.6942 31.5459 91.5142 32.8059 90.2742 34.0659L58.0142 62.8858L54.0142 58.8858L71.0742 41.8258C71.2836 41.6466 71.4536 41.4259 71.5736 41.1778C71.6937 40.9297 71.7611 40.6594 71.7718 40.384C71.7824 40.1085 71.736 39.8339 71.6355 39.5772C71.5349 39.3206 71.3824 39.0875 71.1875 38.8926C70.9926 38.6976 70.7595 38.5451 70.5028 38.4446C70.2462 38.344 69.9715 38.2976 69.6961 38.3083C69.4206 38.3189 69.1504 38.3864 68.9022 38.5064C68.6541 38.6264 68.4335 38.7965 68.2542 39.0059L51.1942 56.0658L47.1942 52.0658L76.0342 19.7259C77.2942 18.4859 78.5142 17.3459 79.6942 16.3259C80.8742 15.3059 81.9342 14.4859 83.0142 13.7259C84.4484 12.6816 85.9669 11.7585 87.5542 10.9659ZM77.1342 51.0858L76.9142 63.2258C76.9109 64.0149 76.7519 64.7955 76.4465 65.5231C76.1411 66.2507 75.6951 66.9108 75.1342 67.4658L68.9142 73.6058C68.803 73.7098 68.6565 73.7677 68.5042 73.7677C68.3519 73.7677 68.2054 73.7098 68.0942 73.6058L60.5142 66.0058L77.1142 51.0858H77.1342ZM36.4142 41.8858C36.3558 41.8286 36.3098 41.7601 36.2788 41.6844C36.2478 41.6088 36.2327 41.5276 36.2342 41.4459C36.2324 41.3748 36.2457 41.3041 36.2732 41.2386C36.3008 41.1731 36.3421 41.1142 36.3942 41.0658L42.5542 34.9059C43.1035 34.3401 43.759 33.8881 44.4831 33.5758C45.2072 33.2635 45.9857 33.097 46.7742 33.0859L58.9142 32.8659L44.0342 49.4658L36.4142 41.8858ZM54.9142 9.0859C62.2688 9.07805 69.5182 10.8338 76.0542 14.2059C75.1142 15.0459 74.0542 15.9659 73.1342 16.9859L62.5142 28.8259H62.2342L46.6742 29.0859C44.0562 29.1233 41.5573 30.1861 39.7142 32.0459L33.5542 38.2059C33.1272 38.6291 32.7901 39.1342 32.5633 39.691C32.3365 40.2478 32.2245 40.8447 32.2342 41.4459C32.2431 42.6628 32.7319 43.8271 33.5942 44.6858L42.7942 53.8858C43.1113 54.188 43.5189 54.3777 43.9542 54.4258L44.2142 54.6858L43.6142 55.2858C40.3447 57.9187 36.6052 59.9072 32.5942 61.1458C31.3488 60.8054 30.0653 60.6239 28.7743 60.6058C27.9801 60.5985 27.1878 60.6857 26.4143 60.8658C25.7767 59.543 24.9177 58.339 23.8743 57.3058C22.3129 55.6894 20.3322 54.5398 18.1543 53.9858C18.6166 53.654 19.0574 53.2933 19.4743 52.9058C25.5743 46.8058 26.0743 37.4059 20.5743 31.9059C19.4915 30.8012 18.2087 29.9121 16.7943 29.2859C20.9962 23.0428 26.6736 17.933 33.3231 14.4094C39.9726 10.8857 47.3888 9.05722 54.9142 9.0859ZM77.2942 95.3058C76.7542 95.6258 76.1942 95.9258 75.6342 96.2058L74.2742 96.8658C72.9742 97.4658 71.6342 98.0058 70.2742 98.4858C69.6542 98.7058 69.0542 98.9058 68.4342 99.0858L67.2542 99.4258L66.1142 99.7258C64.8142 100.046 63.4942 100.326 62.1142 100.526C61.3542 100.646 60.5742 100.746 59.7942 100.826L58.5742 100.946L56.9142 101.086H54.9142C42.7143 101.086 31.014 96.2393 22.3873 87.6127C13.7607 78.986 8.91428 67.2858 8.91428 55.0858C8.91428 53.9058 8.91428 52.7458 9.05428 51.5858C9.05428 51.1058 9.05428 50.6258 9.17428 50.1658L9.35428 48.7058C9.47428 47.8058 9.63428 46.9058 9.81428 46.0058C9.81428 45.6658 9.95428 45.3058 10.0343 44.9458C10.2543 44.0058 10.4943 43.0658 10.7543 42.1458C11.0143 41.2258 11.3343 40.2859 11.6743 39.3858C11.8343 38.9459 11.9943 38.4859 12.1943 38.0459C12.3552 37.5889 12.5422 37.1415 12.7543 36.7059C12.9343 36.2459 13.1343 35.8059 13.3543 35.3659L13.9943 34.0659C14.2143 33.6459 14.4343 33.2059 14.6743 32.7859C15.8278 33.2216 16.8722 33.9042 17.7343 34.7859C18.6662 35.7339 19.3841 36.8706 19.8395 38.1195C20.2949 39.3685 20.4772 40.7005 20.3743 42.0258C20.1755 45.0922 18.8506 47.9769 16.6543 50.1258C16.4309 50.3309 16.1972 50.5244 15.9543 50.7058L15.6943 50.9058C15.0958 51.3714 14.642 51.9975 14.3857 52.7112C14.1295 53.4248 14.0814 54.1966 14.247 54.9365C14.4126 55.6765 14.7851 56.3541 15.321 56.8905C15.857 57.4268 16.5344 57.7997 17.2743 57.9658C18.7144 58.3443 20.0223 59.1124 21.0543 60.1858C21.8113 60.9078 22.4403 61.7532 22.9143 62.6858C23.2441 63.359 23.7565 63.926 24.393 64.322C25.0296 64.7181 25.7646 64.9273 26.5143 64.9258C26.8234 64.9222 27.1315 64.8887 27.4343 64.8258C27.9068 64.7188 28.3898 64.6651 28.8743 64.6658C29.8142 64.6796 30.7485 64.814 31.6542 65.0658C31.9926 65.1614 32.3427 65.2085 32.6942 65.2058C33.0459 65.2099 33.3962 65.1627 33.7342 65.0658C36.6799 64.2367 39.4893 62.9836 42.0742 61.3458L48.6542 67.9258C46.6695 70.7573 45.3875 74.0206 44.9142 77.4458C44.9043 77.5723 44.9043 77.6993 44.9142 77.8258C44.9117 78.5213 45.0763 79.2072 45.3942 79.8258C45.7235 80.4794 46.2259 81.0302 46.8465 81.4181C47.4672 81.806 48.1824 82.0162 48.9142 82.0258C49.3716 82.0258 49.8253 81.9445 50.2542 81.7858C51.2841 81.4338 52.3659 81.258 53.4542 81.2658C57.9208 81.5046 62.1244 83.4524 65.1942 86.7058C66.5128 88.0564 67.6552 89.5684 68.5942 91.2058C68.9466 91.8162 69.4541 92.3226 70.0652 92.6739C70.6763 93.0251 71.3693 93.2086 72.0742 93.2058H72.9742C74.9753 93.2329 76.9546 93.626 78.8142 94.3658C78.3234 94.7041 77.8161 95.0178 77.2942 95.3058ZM83.8542 90.8458L82.7142 91.7258C79.7293 90.142 76.4127 89.2854 73.0342 89.2258H72.1342C71.0483 87.2732 69.7027 85.4768 68.1342 83.8858C64.3298 79.8506 59.0956 77.4669 53.5542 77.2458C52.0087 77.2393 50.4734 77.4963 49.0142 78.0058C49.0026 77.9396 49.0026 77.872 49.0142 77.8058C49.2942 74.9458 50.7342 71.1058 54.9142 66.2258L55.3542 65.7858L55.6142 66.0458C55.6623 66.4812 55.852 66.8887 56.1542 67.2058L65.3542 76.4058C66.2264 77.2724 67.4047 77.7609 68.6342 77.7658C69.2281 77.7668 69.8165 77.6508 70.3656 77.4243C70.9146 77.1978 71.4137 76.8653 71.8342 76.4458L77.9942 70.2858C79.8393 68.4363 80.8874 65.9382 80.9142 63.3258L81.2542 47.7858C81.2542 47.6858 81.2542 47.6058 81.2542 47.5058L93.0941 36.8859C94.1142 35.8859 95.0941 34.8859 95.8741 33.9659C100.733 43.3813 102.192 54.1854 100.006 64.5525C97.8194 74.9197 92.1213 84.2142 83.8742 90.8658L83.8542 90.8458Z" fill="#6D94C4"/>
<path d="M80.6747 29.3258C81.3978 30.0539 82.2578 30.6317 83.2052 31.026C84.1525 31.4203 85.1685 31.6233 86.1947 31.6233C87.2208 31.6233 88.2368 31.4203 89.1842 31.026C90.1316 30.6317 90.9916 30.0539 91.7147 29.3258C91.9757 29.0646 92.2164 28.7838 92.4347 28.4859C93.3018 27.3251 93.8294 25.9463 93.9586 24.5032C94.0878 23.06 93.8135 21.6094 93.1664 20.3131C92.5193 19.0168 91.5247 17.9257 90.2937 17.1616C89.0626 16.3975 87.6435 15.9905 86.1947 15.9859C84.5365 15.9988 82.9281 16.5537 81.6147 17.5659C81.3121 17.7782 81.0308 18.0193 80.7747 18.2859C80.04 19.0024 79.4544 19.8571 79.0515 20.8009C78.6486 21.7447 78.4364 22.7589 78.4271 23.785C78.4178 24.8112 78.6116 25.8291 78.9973 26.78C79.3831 27.7309 79.9531 28.5962 80.6747 29.3258ZM86.1947 19.9859C86.8063 19.983 87.4095 20.1285 87.9525 20.41C88.4955 20.6916 88.9621 21.1007 89.3122 21.6022C89.6623 22.1038 89.8855 22.6828 89.9625 23.2895C90.0396 23.8963 89.9683 24.5127 89.7547 25.0859C89.5897 25.623 89.2943 26.1109 88.8947 26.5059C88.5388 26.8604 88.1166 27.1414 87.6521 27.3328C87.1876 27.5242 86.69 27.6222 86.1876 27.6213C85.6852 27.6204 85.188 27.5205 84.7242 27.3274C84.2604 27.1343 83.8393 26.8517 83.4847 26.4959C83.1301 26.14 82.8491 25.7177 82.6577 25.2533C82.4663 24.7888 82.3683 24.2912 82.3692 23.7888C82.3702 23.2864 82.47 22.7892 82.6631 22.3254C82.8562 21.8616 83.1388 21.4404 83.4947 21.0859C83.8897 20.6863 84.3776 20.3908 84.9147 20.2259C85.3223 20.0656 85.7567 19.9841 86.1947 19.9859Z" fill="#EEEEEE"/>
</g>
<defs>
<filter id="filter0_d" x="-4" y="3.05176e-05" width="118" height="118" filterUnits="userSpaceOnUse" color-interpolation-filters="sRGB">
<feFlood flood-opacity="0" result="BackgroundImageFix"/>
<feColorMatrix in="SourceAlpha" type="matrix" values="0 0 0 0 0 0 0 0 0 0 0 0 0 0 0 0 0 0 127 0"/>
<feOffset dy="4"/>
<feGaussianBlur stdDeviation="2"/>
<feColorMatrix type="matrix" values="0 0 0 0 0 0 0 0 0 0 0 0 0 0 0 0 0 0 0.25 0"/>
<feBlend mode="normal" in2="BackgroundImageFix" result="effect1_dropShadow"/>
<feBlend mode="normal" in="SourceGraphic" in2="effect1_dropShadow" result="shape"/>
</filter>
</defs>
</svg>
