<svg width="112" height="113" viewBox="0 0 112 113" fill="none" xmlns="http://www.w3.org/2000/svg">
<g filter="url(#filter0_d)">
<path d="M107.235 32.9896L98.5449 23.9882C98.2711 23.6839 97.9382 23.4383 97.5665 23.2664C97.1947 23.0944 96.7919 22.9998 96.3824 22.9881H92.4778C91.797 22.168 91.0761 21.3879 90.3353 20.6078C88.7453 18.9174 87.0391 17.34 85.2293 15.8871C83.1161 14.1963 80.8657 12.6842 78.5013 11.3664C71.8698 7.65989 64.4806 5.5102 56.8939 5.08029C49.3072 4.65039 41.722 5.95156 34.7135 8.88517C27.7049 11.8188 21.4569 16.3078 16.443 22.012C11.4292 27.7162 7.7811 34.4858 5.77533 41.8077C3.76956 49.1296 3.45875 56.8115 4.86646 64.2712C6.27416 71.7309 9.36344 78.7725 13.9001 84.8624C18.4368 90.9522 24.3018 95.9303 31.0505 99.4194C37.7991 102.908 45.2544 104.817 52.8511 105H54.0125C54.5131 105 55.0137 105 55.5143 105C62.7423 104.794 69.8399 103.027 76.3188 99.8193C78.1216 98.9407 79.8611 97.9382 81.5249 96.8188C82.9177 95.9344 84.2551 94.9658 85.5296 93.9184C91.3306 89.2223 96.0065 83.2892 99.2148 76.5539C102.423 69.8187 104.082 62.4517 104.071 54.9928C104.091 50.6416 103.519 46.3079 102.369 42.1109L107.235 36.9901C107.728 36.44 108 35.7279 108 34.9898C108 34.2518 107.728 33.5397 107.235 32.9896ZM7.9583 54.9928C7.9551 46.9641 10.0551 39.0744 14.0498 32.1077C18.0444 25.141 23.7944 19.3398 30.7285 15.2807C37.6627 11.2216 45.5394 9.04592 53.576 8.96981C61.6125 8.89371 69.5291 10.9199 76.539 14.8469C78.706 16.0542 80.7688 17.4391 82.7063 18.9875C84.2522 20.2186 85.7108 21.5553 87.0714 22.9881H72.0337V21.988C72.0337 20.6617 71.5063 19.3897 70.5675 18.4519C69.6288 17.5141 68.3555 16.9872 67.0278 16.9872C65.7002 16.9872 64.4269 17.5141 63.4881 18.4519C62.5493 19.3897 62.0219 20.6617 62.0219 21.988V22.9881H36.9925C36.1959 22.9881 35.4319 23.3042 34.8687 23.8669C34.3054 24.4296 33.9889 25.1928 33.9889 25.9885V43.9912C33.9889 44.7869 34.3054 45.5501 34.8687 46.1128C35.4319 46.6755 36.1959 46.9916 36.9925 46.9916H62.0219V51.1122H35.6709C35.2672 51.1136 34.8679 51.1957 34.4965 51.3537C34.1251 51.5118 33.7891 51.7425 33.5084 52.0323L24.8181 60.9936C24.281 61.5493 23.9809 62.2915 23.9809 63.0639C23.9809 63.8363 24.281 64.5786 24.8181 65.1342L33.5084 74.0755C33.7891 74.3654 34.1251 74.5961 34.4965 74.7541C34.8679 74.9122 35.2672 74.9943 35.6709 74.9957H62.0219V88.9977H61.7817C60.2992 89.0076 58.8559 89.4739 57.6484 90.333C56.4409 91.1921 55.5278 92.4022 55.0337 93.7984L53.0314 99.9993C52.9168 100.311 52.8296 100.632 52.771 100.959C40.7801 100.636 29.3884 95.6525 21.0194 87.068C12.6503 78.4834 7.96437 66.9757 7.9583 54.9928ZM68.029 22.9881H66.0267V21.988C66.0267 21.7227 66.1321 21.4683 66.3199 21.2807C66.5077 21.0932 66.7623 20.9878 67.0278 20.9878C67.2934 20.9878 67.548 21.0932 67.7358 21.2807C67.9235 21.4683 68.029 21.7227 68.029 21.988V22.9881ZM74.5367 96.1988C69.0396 98.9683 63.0396 100.601 56.8959 100.999L58.8983 95.2186C59.094 94.5984 59.4754 94.0531 59.9909 93.6561C60.5065 93.2591 61.1315 93.0295 61.7817 92.9983H73.7958C74.4273 93.0022 75.0432 93.1947 75.5642 93.5512C76.0852 93.9077 76.4874 94.4118 76.7192 94.9986C76.0384 95.4586 75.2775 95.8387 74.5367 96.1988ZM66.0267 88.9977V74.9957H68.029V88.9977H66.0267ZM66.0267 70.9951H36.0914L28.3823 62.9939L36.0914 54.9928H94.0597V70.9951H66.0267ZM68.029 51.1122H66.0267V46.9916H68.029V51.1122ZM82.9666 90.778C82.0655 91.5181 81.1244 92.2382 80.1433 92.8983C79.5535 91.7105 78.6468 90.7084 77.5233 90.0025C76.3998 89.2966 75.103 88.9143 73.7758 88.8977H72.0337V74.9957H95.0608H95.5214C92.5558 81.1189 88.268 86.5091 82.9666 90.778ZM100.067 54.9928C100.073 59.5349 99.3979 64.0523 98.0644 68.3947V54.0926C98.0591 53.3003 97.7403 52.5423 97.1776 51.9839C96.6149 51.4255 95.854 51.1122 95.0608 51.1122H72.0337V46.9916H96.3824C96.7861 46.9902 97.1854 46.9081 97.5568 46.75C97.9282 46.592 98.2642 46.3613 98.5449 46.0715L99.0856 45.5114C99.7478 48.6282 100.077 51.8065 100.067 54.9928ZM101.008 37.7502L97.8842 40.9907L95.8818 42.991H37.9937V26.9887H96.062L103.771 34.9898L101.008 37.7502Z" fill="#6D94C4"/>
<path d="M61.0665 32.9896H47.05C46.5189 32.9896 46.0096 33.2003 45.6341 33.5755C45.2586 33.9506 45.0476 34.4594 45.0476 34.9899C45.0476 35.5204 45.2586 36.0292 45.6341 36.4043C46.0096 36.7794 46.5189 36.9902 47.05 36.9902H61.0665C61.5975 36.9902 62.1068 36.7794 62.4823 36.4043C62.8579 36.0292 63.0688 35.5204 63.0688 34.9899C63.0688 34.4594 62.8579 33.9506 62.4823 33.5755C62.1068 33.2003 61.5975 32.9896 61.0665 32.9896Z" fill="#EEEEEE"/>
<path d="M92.0578 32.9896H70.0319C69.5008 32.9896 68.9915 33.2003 68.616 33.5755C68.2405 33.9506 68.0295 34.4594 68.0295 34.9899C68.0295 35.5204 68.2405 36.0292 68.616 36.4043C68.9915 36.7794 69.5008 36.9902 70.0319 36.9902H92.0578C92.5889 36.9902 93.0982 36.7794 93.4737 36.4043C93.8492 36.0292 94.0602 35.5204 94.0602 34.9899C94.0602 34.4594 93.8492 33.9506 93.4737 33.5755C93.0982 33.2003 92.5889 32.9896 92.0578 32.9896Z" fill="#EEEEEE"/>
<path d="M58.0635 60.9936H42.0446C41.5135 60.9936 41.0042 61.2043 40.6287 61.5794C40.2532 61.9546 40.0422 62.4633 40.0422 62.9939C40.0422 63.5244 40.2532 64.0331 40.6287 64.4083C41.0042 64.7834 41.5135 64.9941 42.0446 64.9941H58.0635C58.5945 64.9941 59.1038 64.7834 59.4793 64.4083C59.8548 64.0331 60.0658 63.5244 60.0658 62.9939C60.0658 62.4633 59.8548 61.9546 59.4793 61.5794C59.1038 61.2043 58.5945 60.9936 58.0635 60.9936Z" fill="#EEEEEE"/>
<path d="M88.0532 64.9941C88.5842 64.9941 89.0936 64.7834 89.4691 64.4083C89.8446 64.0331 90.0555 63.5244 90.0555 62.9939C90.0555 62.4633 89.8446 61.9546 89.4691 61.5794C89.0936 61.2043 88.5842 60.9936 88.0532 60.9936H66.0273C65.4962 60.9936 64.9869 61.2043 64.6114 61.5794C64.2359 61.9546 64.0249 62.4633 64.0249 62.9939C64.0249 63.5244 64.2359 64.0331 64.6114 64.4083C64.9869 64.7834 65.4962 64.9941 66.0273 64.9941H88.0532Z" fill="#EEEEEE"/>
</g>
<defs>
<filter id="filter0_d" x="-3" y="3.05176e-05" width="118" height="118" filterUnits="userSpaceOnUse" color-interpolation-filters="sRGB">
<feFlood flood-opacity="0" result="BackgroundImageFix"/>
<feColorMatrix in="SourceAlpha" type="matrix" values="0 0 0 0 0 0 0 0 0 0 0 0 0 0 0 0 0 0 127 0"/>
<feOffset dy="4"/>
<feGaussianBlur stdDeviation="2"/>
<feColorMatrix type="matrix" values="0 0 0 0 0 0 0 0 0 0 0 0 0 0 0 0 0 0 0.25 0"/>
<feBlend mode="normal" in2="BackgroundImageFix" result="effect1_dropShadow"/>
<feBlend mode="normal" in="SourceGraphic" in2="effect1_dropShadow" result="shape"/>
</filter>
</defs>
</svg>
