<svg width="118" height="113" viewBox="0 0 118 113" fill="none" xmlns="http://www.w3.org/2000/svg">
<g filter="url(#filter0_d)">
<path d="M107.997 29.0218H96.6909C95.5962 27.2308 94.3934 25.5081 93.089 23.8633C92.2085 22.7836 91.2681 21.7039 90.2675 20.6842C88.689 18.9842 86.9831 17.4068 85.1649 15.9656C83.0486 14.2757 80.8002 12.758 78.4413 11.4269C70.4926 6.95616 61.4718 4.74203 52.3547 5.02396C43.2375 5.30588 34.371 8.07314 26.7142 13.0264C26.4616 12.9959 26.2063 12.9959 25.9538 13.0264H9.94536C9.41465 13.0264 8.90567 13.2371 8.5304 13.612C8.15513 13.987 7.94431 14.4956 7.94431 15.0258C7.94431 15.5561 8.15513 16.0647 8.5304 16.4397C8.90567 16.8146 9.41465 17.0253 9.94536 17.0253H21.4514C14.5997 22.8991 9.46648 30.5161 6.59603 39.0686C3.72558 47.6211 3.22488 56.7903 5.14703 65.6041C7.06917 74.4179 11.3425 82.5477 17.514 89.1315C23.6854 95.7153 31.5249 100.508 40.2012 103.001C41.5842 103.404 42.9868 103.738 44.4035 104C46.6984 104.496 49.0253 104.83 51.3671 105C52.2276 105 53.108 105 53.9685 105C54.4687 105 54.969 105 55.4693 105H55.6894C62.837 104.773 69.8523 103.014 76.2602 99.8415C79.5411 98.1993 82.6228 96.1867 85.445 93.8432C85.7852 93.5633 86.1254 93.2834 86.4455 92.9835C87.5851 92.035 88.6738 91.0272 89.7072 89.9643C94.6233 84.9624 98.4281 78.9805 100.873 72.4094L108.377 71.0098C109.834 70.7449 111.168 70.0188 112.18 68.9387C113.193 67.8586 113.831 66.4817 114 65.0115V35.0201C114 33.4293 113.368 31.9036 112.242 30.7787C111.116 29.6538 109.589 29.0218 107.997 29.0218ZM45.3239 100.161C45.6831 99.7932 46.1125 99.5008 46.5869 99.3016C47.0613 99.1024 47.5708 99.0004 48.0854 99.0017C48.7693 99.0113 49.4386 99.2013 50.0254 99.5524C50.6122 99.9035 51.0958 100.403 51.4271 101.001C49.3744 100.876 47.3342 100.595 45.3239 100.161ZM74.4792 96.1626C68.6402 99.0961 62.24 100.746 55.7094 101.001C55.3172 99.463 54.4692 98.079 53.2764 97.0307C52.0835 95.9824 50.6016 95.3185 49.0247 95.1261C47.4478 94.9338 45.8495 95.2219 44.4393 95.9527C43.0291 96.6835 41.8727 97.8229 41.1217 99.2217C32.8409 96.8106 25.4048 92.1229 19.6613 85.6932C13.9179 79.2636 10.0982 71.3506 8.63797 62.8568C7.17772 54.3629 8.13561 45.63 11.4024 37.6538C14.6692 29.6776 20.1135 22.7791 27.1144 17.7451C27.586 18.2005 27.9131 18.7846 28.0549 19.4246L38.7405 78.4077C38.9948 79.7709 39.714 81.0039 40.7756 81.897C41.8373 82.7902 43.1758 83.2881 44.5635 83.3063H45.0038L42.6025 85.6656C42.0107 86.2466 41.6081 86.9926 41.4475 87.8059C41.2868 88.6193 41.3755 89.4621 41.702 90.2243C42.0666 91.0504 42.6635 91.7528 43.4202 92.2462C44.1768 92.7396 45.0607 93.0027 45.9643 93.0035H79.9821C78.2249 94.1971 76.3861 95.266 74.4792 96.2026V96.1626ZM84.9648 89.0046H45.9643C45.8333 89.0047 45.7051 88.967 45.5951 88.896C45.4851 88.8251 45.3979 88.724 45.3439 88.6047C45.3439 88.6047 45.3439 88.4648 45.3439 88.4248L51.9674 81.9067L96.0906 73.3491C93.5348 79.2968 89.7423 84.6333 84.9648 89.0046ZM109.998 65.0115C109.998 65.6713 108.757 66.851 107.617 67.0109L102.274 68.0506L97.8315 69.0104L44.8837 79.2074C44.3763 79.2993 43.853 79.1918 43.4229 78.9075C43.0035 78.6066 42.7167 78.1552 42.6225 77.6479L31.9569 18.6648C31.7262 17.5053 31.2258 16.4163 30.4962 15.4857C38.5131 10.6942 47.8041 8.46541 57.1243 9.09793C66.4445 9.73044 75.3486 13.1941 82.6435 19.0247C84.3344 20.3679 85.9199 21.8384 87.386 23.4234C88.3065 24.3632 89.167 25.4229 89.9674 26.3426C90.7678 27.2623 91.2881 28.0621 91.9684 28.9818L45.9643 29.0218C45.4336 29.0218 44.9246 29.2325 44.5493 29.6074C44.174 29.9824 43.9632 30.491 43.9632 31.0213C43.9632 31.5515 44.174 32.0601 44.5493 32.4351C44.9246 32.81 45.4336 33.0207 45.9643 33.0207H94.3897H107.997C108.528 33.0207 109.037 33.2313 109.412 33.6063C109.787 33.9813 109.998 34.4898 109.998 35.0201V65.0115Z" fill="#6D94C4"/>
<path d="M64.9744 52.7751C66.3596 52.7751 67.7137 52.3646 68.8654 51.5957C70.0172 50.8267 70.9148 49.7338 71.4449 48.4551C71.975 47.1764 72.1137 45.7693 71.8435 44.4118C71.5732 43.0544 70.9062 41.8074 69.9267 40.8288C68.9472 39.8501 67.6993 39.1836 66.3407 38.9136C64.9821 38.6435 63.5739 38.7821 62.2942 39.3118C61.0144 39.8414 59.9206 40.7384 59.151 41.8892C58.3815 43.04 57.9707 44.393 57.9707 45.7771C57.9707 47.6331 58.7086 49.413 60.022 50.7254C61.3355 52.0378 63.1169 52.7751 64.9744 52.7751ZM64.9744 42.7779C65.568 42.7779 66.1484 42.9538 66.642 43.2834C67.1356 43.6129 67.5203 44.0813 67.7475 44.6294C67.9747 45.1774 68.0341 45.7804 67.9183 46.3622C67.8025 46.944 67.5166 47.4784 67.0968 47.8978C66.677 48.3172 66.1422 48.6029 65.56 48.7186C64.9777 48.8343 64.3742 48.7749 63.8257 48.5479C63.2773 48.3209 62.8085 47.9365 62.4787 47.4433C62.1488 46.9501 61.9728 46.3702 61.9728 45.7771C61.9728 44.9817 62.289 44.2188 62.8519 43.6564C63.4149 43.0939 64.1783 42.7779 64.9744 42.7779Z" fill="#EEEEEE"/>
<path d="M84.9849 52.7751C83.5997 52.7751 82.2456 53.1855 81.0938 53.9544C79.9421 54.7234 79.0444 55.8163 78.5143 57.095C77.9842 58.3737 77.8455 59.7808 78.1158 61.1383C78.386 62.4958 79.0531 63.7427 80.0325 64.7214C81.012 65.7001 82.26 66.3666 83.6185 66.6366C84.9771 66.9066 86.3853 66.768 87.6651 66.2384C88.9448 65.7087 90.0387 64.8117 90.8082 63.6609C91.5778 62.5101 91.9886 61.1571 91.9886 59.773C91.9886 57.9171 91.2507 56.1371 89.9372 54.8247C88.6238 53.5123 86.8424 52.7751 84.9849 52.7751ZM84.9849 62.7722C84.3912 62.7722 83.8109 62.5963 83.3173 62.2667C82.8237 61.9372 82.439 61.4688 82.2118 60.9208C81.9846 60.3727 81.9252 59.7697 82.041 59.1879C82.1568 58.6062 82.4427 58.0718 82.8624 57.6523C83.2822 57.2329 83.817 56.9473 84.3993 56.8315C84.9815 56.7158 85.5851 56.7752 86.1335 57.0022C86.682 57.2292 87.1508 57.6136 87.4806 58.1068C87.8104 58.6 87.9865 59.1799 87.9865 59.773C87.9865 60.5685 87.6702 61.3313 87.1073 61.8938C86.5444 62.4562 85.7809 62.7722 84.9849 62.7722Z" fill="#EEEEEE"/>
<path d="M91.548 39.5389C91.2178 39.1269 90.738 38.8621 90.2132 38.8022C89.6884 38.7422 89.1612 38.8921 88.7465 39.219L58.7307 63.2121C58.5237 63.3757 58.3511 63.5785 58.2228 63.809C58.0946 64.0395 58.0132 64.2931 57.9835 64.5551C57.9537 64.8172 57.9761 65.0825 58.0494 65.3358C58.1227 65.5892 58.2455 65.8255 58.4106 66.0313C58.5989 66.2633 58.8369 66.4501 59.107 66.5781C59.3771 66.7062 59.6724 66.7721 59.9714 66.7711C60.4227 66.7685 60.86 66.6134 61.212 66.3312L91.2278 42.3381C91.6401 42.0082 91.9052 41.5288 91.9651 41.0044C92.0251 40.48 91.8751 39.9532 91.548 39.5389Z" fill="#EEEEEE"/>
</g>
<defs>
<filter id="filter0_d" x="0" y="3.05176e-05" width="118" height="118" filterUnits="userSpaceOnUse" color-interpolation-filters="sRGB">
<feFlood flood-opacity="0" result="BackgroundImageFix"/>
<feColorMatrix in="SourceAlpha" type="matrix" values="0 0 0 0 0 0 0 0 0 0 0 0 0 0 0 0 0 0 127 0"/>
<feOffset dy="4"/>
<feGaussianBlur stdDeviation="2"/>
<feColorMatrix type="matrix" values="0 0 0 0 0 0 0 0 0 0 0 0 0 0 0 0 0 0 0.25 0"/>
<feBlend mode="normal" in2="BackgroundImageFix" result="effect1_dropShadow"/>
<feBlend mode="normal" in="SourceGraphic" in2="effect1_dropShadow" result="shape"/>
</filter>
</defs>
</svg>
