<svg width="110" height="113" viewBox="0 0 110 113" fill="none" xmlns="http://www.w3.org/2000/svg">
<g filter="url(#filter0_d)">
<path d="M97.3189 42.1626C97.1663 42.1418 97.0115 42.1418 96.8589 42.1626H89.3185L86.9983 34.5229C86.8888 34.0792 86.6306 33.6863 86.2667 33.4098C85.9028 33.1332 85.4551 32.9896 84.9982 33.003C84.5496 33.0219 84.1174 33.1777 83.7599 33.4494C83.4024 33.7211 83.1365 34.0957 82.9981 34.5229L80.718 42.1026H73.1176C72.6853 42.0983 72.262 42.2263 71.9046 42.4694C71.5471 42.7125 71.2724 43.059 71.1175 43.4625C70.9767 43.8716 70.9584 44.3128 71.065 44.7321C71.1716 45.1514 71.3984 45.5303 71.7175 45.8224L77.8778 51.2222L74.9977 57.942C74.81 58.3668 74.7671 58.8416 74.8755 59.2932C74.9839 59.7449 75.2376 60.1484 75.5977 60.4419C75.9826 60.7343 76.4545 60.8892 76.9378 60.8818C77.3819 60.8964 77.8182 60.7627 78.1779 60.5019L84.7782 55.7021L92.0586 60.5419C92.4073 60.7944 92.8282 60.9276 93.2587 60.9218C93.7724 60.9205 94.2687 60.7361 94.6588 60.4019L94.8188 60.2219C95.0683 59.8855 95.2177 59.4855 95.2495 59.0679C95.2814 58.6503 95.1944 58.2323 94.9988 57.862V57.602L91.6386 50.8622V50.7622L94.6987 48.5423L98.2389 45.9624C98.5927 45.7095 98.8544 45.3481 98.9843 44.9331C99.1143 44.5181 99.1054 44.072 98.959 43.6625C98.8434 43.2894 98.6305 42.9539 98.3423 42.6902C98.0541 42.4266 97.7008 42.2445 97.3189 42.1626ZM81.558 49.1223L78.0979 46.1024H82.0981C82.5435 46.0822 82.9726 45.9283 83.3294 45.6607C83.6861 45.3932 83.954 45.0244 84.0982 44.6025L84.9982 41.6626L85.8783 44.6025C86.0224 45.0244 86.2903 45.3932 86.6471 45.6607C87.0038 45.9283 87.4329 46.0822 87.8784 46.1024H90.9986L81.398 53.1422L82.0981 51.6022C82.2667 51.1823 82.3054 50.7214 82.2091 50.2793C82.1128 49.8372 81.886 49.4341 81.558 49.1223Z" fill="#EEEEEE"/>
<path d="M104.16 45.8824C103.947 44.6158 103.667 43.3758 103.32 42.1625C103.32 41.9625 103.32 41.7425 103.16 41.5425C102.109 37.7019 100.583 34.007 98.6196 30.543C97.3019 28.1815 95.79 25.9338 94.0993 23.8232C93.2193 22.7233 92.2792 21.6633 91.2792 20.6234C89.691 18.9334 87.9867 17.3563 86.1789 15.9036C84.0681 14.2131 81.8202 12.7012 79.4585 11.3837C71.3015 6.81219 62.0259 4.61931 52.6851 5.05414C43.3443 5.48896 34.3126 8.53407 26.6157 13.8436L24.9956 8.60385C24.9021 8.14532 24.6507 7.73409 24.2853 7.44176C23.9198 7.14942 23.4634 6.99448 22.9955 7.00392C22.5377 7.03136 22.0996 7.1999 21.7414 7.48639C21.3833 7.77288 21.1227 8.16326 20.9954 8.60385L18.6953 16.1836H11.0949C10.6602 16.1808 10.2352 16.3117 9.87746 16.5586C9.5197 16.8054 9.24646 17.1562 9.09475 17.5635C8.95575 17.9679 8.93654 18.4039 9.03944 18.819C9.14234 19.2341 9.36296 19.6107 9.67478 19.9034L15.2151 24.7232C14.375 25.8232 13.575 26.9831 12.815 28.1631C8.00557 35.7215 5.31551 44.4331 5.0261 53.387C4.73669 62.3408 6.85856 71.2079 11.1698 79.0611C15.4811 86.9142 21.8233 93.4649 29.5333 98.028C37.2433 102.591 46.0379 104.999 54.9972 105C55.4972 105 55.9973 105 56.4973 105C59.6676 104.904 62.8218 104.509 65.9178 103.82C67.5022 103.488 69.0651 103.06 70.5981 102.54C72.889 101.8 75.122 100.891 77.2784 99.8202C80.5578 98.1776 83.638 96.1645 86.4589 93.8205C87.9753 92.572 89.4178 91.2365 90.7792 89.8206C91.7192 88.8607 92.6193 87.8207 93.4393 86.8607C100.898 77.9184 104.988 66.6462 105 55.002C105.005 51.9426 104.724 48.8893 104.16 45.8824ZM16.0951 20.1834H20.0953C20.5408 20.1632 20.9699 20.0092 21.3266 19.7417C21.6834 19.4742 21.9513 19.1054 22.0955 18.6835L22.6355 16.8635L22.9955 15.7436L23.1955 16.4035L23.8755 18.6835C23.9756 18.9795 24.1381 19.2505 24.352 19.4783C24.566 19.706 24.8264 19.8851 25.1156 20.0034C25.3593 20.1199 25.6256 20.1814 25.8957 20.1834H28.9958L19.3953 27.2231L20.0953 25.6632C20.2079 25.4119 20.2626 25.1385 20.2554 24.8632C20.2609 24.556 20.2013 24.251 20.0807 23.9684C19.96 23.6858 19.781 23.4318 19.5553 23.2233L17.7752 21.6633L16.0951 20.1834ZM83.9188 90.7806C81.3342 92.911 78.5079 94.7301 75.4983 96.2004C72.7797 97.5553 69.9319 98.634 66.9979 99.4202C66.3778 99.6002 65.7378 99.7402 65.0978 99.8802L64.5577 99.4202C62.5918 97.6288 60.4548 96.0346 58.1774 94.6604C56.9418 94.3161 55.686 94.0489 54.4172 93.8605C49.2384 93.0264 44.1538 91.6867 39.2364 89.8606C35.4657 88.6005 32.0414 86.4776 29.2358 83.6609C28.2079 82.6457 27.1047 81.7098 25.9357 80.861C25.1825 80.38 24.5695 79.7088 24.1586 78.9153C23.7478 78.1217 23.5535 77.2338 23.5955 76.3412C23.9739 76.0905 24.2977 75.7658 24.5471 75.3867C24.7966 75.0075 24.9666 74.5817 25.047 74.135C25.1274 73.6883 25.1164 73.23 25.0148 72.7877C24.9131 72.3453 24.7229 71.9282 24.4556 71.5614C23.9005 70.7333 23.5194 69.8012 23.3355 68.8215V68.5015C23.3995 67.8866 23.5132 67.278 23.6755 66.6815C24.1903 66.4158 24.6379 66.0364 24.9844 65.5721C25.331 65.1078 25.5673 64.5708 25.6756 64.0017C25.685 63.5765 25.5961 63.155 25.4156 62.7699C25.2352 62.3848 24.9683 62.0466 24.6356 61.7817C24.4032 61.616 24.2339 61.3763 24.1556 61.1018C24.0728 59.5853 24.5338 58.089 25.4556 56.8819C26.0109 56.8393 26.5487 56.6691 27.0275 56.3847C27.5062 56.1002 27.9128 55.7092 28.2158 55.242C28.4176 54.7668 28.503 54.2503 28.4647 53.7354C28.4264 53.2205 28.2656 52.7223 27.9958 52.2821C27.8173 52.0108 27.6968 51.7056 27.6417 51.3855C27.5867 51.0655 27.5982 50.7375 27.6758 50.4222C27.759 49.9239 27.9418 49.4475 28.2133 49.0214C28.4848 48.5953 28.8393 48.2283 29.2558 47.9423C29.6767 47.7294 30.1445 47.6262 30.6159 47.6423C31.3427 47.6607 32.0632 47.7819 32.756 48.0023C34.1329 48.5005 35.4702 49.1022 36.7562 49.8022C40.2164 51.5222 44.1366 53.4821 47.9168 51.5022C51.357 49.7022 51.277 44.9824 51.177 39.9826C50.9164 36.4593 51.2066 32.9169 52.0371 29.483C53.1771 25.8632 54.4172 25.0232 54.6372 25.0032C54.8468 25.2211 55.0044 25.4836 55.0979 25.7712C55.1914 26.0587 55.2186 26.3636 55.1772 26.6631C54.8344 34.8681 57.3747 42.9342 62.3576 49.4622C65.1778 53.0621 65.5378 58.0819 65.8778 62.5017C65.9506 64.2198 66.1444 65.9307 66.4578 67.6215C66.8731 69.5955 67.9023 71.3876 69.398 72.7413L85.2789 87.2407L86.5389 88.3807C85.7589 89.2007 84.8588 90.0206 83.9188 90.7806ZM101 57.5819C101 58.4619 100.88 59.3218 100.8 60.2018C99.7912 69.0266 96.2327 77.3663 90.5591 84.2009L89.4991 85.4608L88.119 84.2009L72.1982 69.7814C71.3216 68.9856 70.7136 67.9375 70.4581 66.7815C70.1938 65.2672 70.0267 63.7374 69.958 62.2017C69.618 57.4619 69.178 51.5621 65.6178 47.0023C61.2532 41.194 59.015 34.0636 59.2775 26.8031C59.4488 25.5353 59.1538 24.2483 58.4475 23.1816C57.7412 22.1148 56.6715 21.3408 55.4372 21.0034C54.0572 20.7634 50.617 21.0034 48.3169 28.2231C47.3398 32.0683 46.9886 36.0457 47.2768 40.0026C47.2768 43.4025 47.4168 47.2423 46.1567 47.9023C44.1566 48.9223 41.4965 47.5823 38.6563 46.1624C37.14 45.3684 35.5613 44.6995 33.9361 44.1624C32.8791 43.7595 31.752 43.5731 30.6215 43.6143C29.4911 43.6556 28.3805 43.9236 27.3557 44.4024C26.4692 44.9352 25.7001 45.6424 25.095 46.4812C24.4899 47.32 24.0614 48.273 23.8355 49.2822C23.4746 50.5557 23.5449 51.9128 24.0356 53.1421C23.1049 53.5766 22.32 54.2712 21.7754 55.142C20.4521 57.1675 19.9249 59.6109 20.2954 62.0017C20.4382 62.5931 20.6965 63.1504 21.0554 63.6417C20.0587 64.837 19.4825 66.3267 19.4153 67.8815V68.1615C19.4026 69.9907 19.9239 71.784 20.9154 73.3213C20.4278 73.7946 20.0511 74.3701 19.8125 75.0064C19.5739 75.6427 19.4792 76.3239 19.5353 77.0011C19.6272 78.4281 20.0334 79.8171 20.725 81.0687C21.4165 82.3203 22.3763 83.4035 23.5355 84.2409C24.5371 84.973 25.48 85.782 26.3557 86.6608C29.5452 89.8468 33.4257 92.2556 37.6963 93.7005C42.8771 95.6286 48.2372 97.0355 53.6972 97.9003C54.7411 98.0501 55.7761 98.257 56.7973 98.5203C57.7677 99.1145 58.6905 99.7832 59.5575 100.52L59.8775 100.78C58.7374 100.9 57.5774 101 56.4173 101.04H54.9972C47.1732 101.045 39.4771 99.0553 32.6366 95.2579C25.7961 91.4605 20.0373 85.9813 15.9046 79.3384C11.7719 72.6955 9.40195 65.1084 9.01881 57.2945C8.63568 49.4806 10.252 41.6981 13.715 34.6828C14.0597 34.8666 14.4444 34.9628 14.8351 34.9628C15.2792 34.9774 15.7155 34.8437 16.0751 34.5828L22.6755 29.783L29.9759 34.6428C30.3646 34.9011 30.827 35.0252 31.2928 34.9964C31.7586 34.9675 32.2022 34.7871 32.556 34.4828C32.882 34.1563 33.0993 33.7371 33.178 33.2825C33.2568 32.8279 33.1932 32.3601 32.996 31.9429L29.5359 25.0032L36.1362 20.2034C36.5134 19.9557 36.7958 19.5877 36.9374 19.1593C37.079 18.7309 37.0715 18.2672 36.9163 17.8435C36.7712 17.4238 36.5025 17.0578 36.1455 16.7936C35.7885 16.5295 35.36 16.3796 34.9161 16.3635H30.2759C38.3345 11.1723 47.8169 8.63528 57.3914 9.10876C66.966 9.58224 76.1517 13.0424 83.6588 19.0034C85.3443 20.3522 86.9286 21.8228 88.399 23.4033C89.3191 24.3432 90.1791 25.4032 90.9792 26.3232C92.5253 28.2712 93.9163 30.3374 95.1394 32.5029C96.8516 35.5315 98.1946 38.7543 99.1396 42.1025C99.1396 42.2825 99.2396 42.4425 99.2796 42.6225C99.8459 44.5889 100.267 46.5942 100.54 48.6223C100.839 50.7358 100.993 52.8674 101 55.002C101 55.862 101 56.7219 101 57.5819Z" fill="#6D94C4"/>
</g>
<defs>
<filter id="filter0_d" x="-4" y="3.05176e-05" width="118" height="118" filterUnits="userSpaceOnUse" color-interpolation-filters="sRGB">
<feFlood flood-opacity="0" result="BackgroundImageFix"/>
<feColorMatrix in="SourceAlpha" type="matrix" values="0 0 0 0 0 0 0 0 0 0 0 0 0 0 0 0 0 0 127 0"/>
<feOffset dy="4"/>
<feGaussianBlur stdDeviation="2"/>
<feColorMatrix type="matrix" values="0 0 0 0 0 0 0 0 0 0 0 0 0 0 0 0 0 0 0.25 0"/>
<feBlend mode="normal" in2="BackgroundImageFix" result="effect1_dropShadow"/>
<feBlend mode="normal" in="SourceGraphic" in2="effect1_dropShadow" result="shape"/>
</filter>
</defs>
</svg>
