<svg width="110" height="113" viewBox="0 0 110 113" fill="none" xmlns="http://www.w3.org/2000/svg">
<g filter="url(#filter0_d)">
<path d="M103.159 41.54C102.182 37.9552 100.785 34.498 98.9986 31.24V19C98.9986 18.4696 98.7878 17.9609 98.4127 17.5858C98.0375 17.2107 97.5287 17 96.9982 17H87.4962L86.176 15.9C84.0649 14.2095 81.8167 12.6976 79.4546 11.38C72.787 7.64502 65.3518 5.48761 57.7202 5.07351C50.0886 4.65941 42.4636 5.99964 35.4308 8.99125C28.3981 11.9829 22.1447 16.5463 17.151 22.331C12.1573 28.1157 8.55617 34.9677 6.62419 42.3609C4.6922 49.754 4.48077 57.4915 6.00613 64.9791C7.5315 72.4666 10.7531 79.5051 15.4234 85.5537C20.0938 91.6024 26.0886 96.5003 32.9475 99.8714C39.8064 103.242 47.3469 104.997 54.9897 105C55.4898 105 55.9899 105 56.49 105C63.7109 104.794 70.8016 103.027 77.2742 99.82C79.9997 98.4701 82.586 96.8557 84.9957 95H101.359H101.599H101.799C101.961 94.9165 102.11 94.8086 102.239 94.68C102.316 94.6167 102.383 94.5426 102.439 94.46V94.34V94.24C102.447 94.1669 102.447 94.0932 102.439 94.02C102.439 94.02 102.439 94.02 102.439 93.9C102.448 93.8471 102.448 93.793 102.439 93.74C102.681 93.5407 102.873 93.2872 102.999 93V69C104.326 64.4517 105 59.7379 105 55C105.014 50.4497 104.394 45.9196 103.159 41.54ZM91.6371 21H94.9977V46.6L70.3128 63L66.312 59.44C65.9469 59.1194 65.4776 58.9426 64.9917 58.9426C64.5058 58.9426 64.0365 59.1194 63.6714 59.44L59.6706 63L34.9857 46.6V21H91.6371ZM82.4552 79.2L86.9561 83.2L89.4966 85.46C87.7803 87.3786 85.9141 89.1575 83.9155 90.78L83.6355 91H34.2455L42.9873 83.2L47.4882 79.2L51.769 75.4L59.9907 68.1L63.0713 65.36L64.9517 63.68L66.8321 65.36L69.9127 68.1L78.1344 75.4L82.4552 79.2ZM41.507 79.2L36.9861 83.2L30.9849 88.54V48.74L34.9857 51.4L56.59 65.8L41.507 79.2ZM63.5114 17L64.9917 15.68L66.472 17H63.5114ZM8.98043 55C8.97723 46.9726 11.0752 39.084 15.0659 32.1183C19.0566 25.1526 24.8011 19.3523 31.7285 15.2938C38.6558 11.2353 46.5248 9.05988 54.5536 8.98379C62.5823 8.90769 70.4912 10.9336 77.4942 14.86C78.6945 15.54 79.8547 16.26 80.9349 17H72.4932L66.312 11.5C65.9469 11.1794 65.4776 11.0026 64.9917 11.0026C64.5058 11.0026 64.0365 11.1794 63.6714 11.5L57.4902 17H32.9853C32.4547 17 31.9459 17.2107 31.5708 17.5858C31.1956 17.9609 30.9849 18.4696 30.9849 19V40.54L27.6642 43.5C27.3759 43.7556 27.1675 44.0889 27.0641 44.46C27.0563 44.5332 27.0563 44.6069 27.0641 44.68C27.0175 44.7807 26.9903 44.8893 26.9841 45V91.46C21.3892 87.1685 16.8558 81.6487 13.7342 75.3268C10.6125 69.005 8.98604 62.0503 8.98043 55ZM75.4938 96.2C69.5435 99.1695 63.0176 100.808 56.37 101H54.9897C47.0344 101.01 39.2146 98.9421 32.3051 95H77.7543C76.9941 95.42 76.274 95.82 75.4938 96.2ZM89.6767 91C90.6603 90.083 91.5951 89.115 92.4772 88.1L95.7379 91H89.6767ZM98.9986 88.54L94.9977 85L92.9973 83.22L92.0171 82.34L88.4764 79.2L73.3934 65.8L94.9977 51.4L98.9986 48.74V88.54Z" fill="#6D94C4"/>
<path d="M40.9867 31H64.9916C65.5221 31 66.0309 30.7893 66.4061 30.4142C66.7812 30.0392 66.992 29.5305 66.992 29C66.992 28.4696 66.7812 27.9609 66.4061 27.5858C66.0309 27.2107 65.5221 27 64.9916 27H40.9867C40.4562 27 39.9474 27.2107 39.5722 27.5858C39.1971 27.9609 38.9863 28.4696 38.9863 29C38.9863 29.5305 39.1971 30.0392 39.5722 30.4142C39.9474 30.7893 40.4562 31 40.9867 31Z" fill="#EEEEEE"/>
<path d="M70.9927 35H56.9899C56.4594 35 55.9506 35.2107 55.5754 35.5858C55.2003 35.9609 54.9895 36.4696 54.9895 37C54.9895 37.5305 55.2003 38.0392 55.5754 38.4142C55.9506 38.7893 56.4594 39 56.9899 39H70.9927C71.5233 39 72.0321 38.7893 72.4072 38.4142C72.7824 38.0392 72.9931 37.5305 72.9931 37C72.9931 36.4696 72.7824 35.9609 72.4072 35.5858C72.0321 35.2107 71.5233 35 70.9927 35Z" fill="#EEEEEE"/>
<path d="M40.9867 39H46.9879C47.5185 39 48.0273 38.7893 48.4024 38.4142C48.7776 38.0392 48.9883 37.5305 48.9883 37C48.9883 36.4696 48.7776 35.9609 48.4024 35.5858C48.0273 35.2107 47.5185 35 46.9879 35H40.9867C40.4562 35 39.9474 35.2107 39.5722 35.5858C39.1971 35.9609 38.9863 36.4696 38.9863 37C38.9863 37.5305 39.1971 38.0392 39.5722 38.4142C39.9474 38.7893 40.4562 39 40.9867 39Z" fill="#EEEEEE"/>
<path d="M62.9912 43H40.9867C40.4562 43 39.9474 43.2107 39.5722 43.5858C39.1971 43.9609 38.9863 44.4696 38.9863 45C38.9863 45.5305 39.1971 46.0392 39.5722 46.4142C39.9474 46.7893 40.4562 47 40.9867 47H62.9912C63.5217 47 64.0305 46.7893 64.4057 46.4142C64.7808 46.0392 64.9916 45.5305 64.9916 45C64.9916 44.4696 64.7808 43.9609 64.4057 43.5858C64.0305 43.2107 63.5217 43 62.9912 43Z" fill="#EEEEEE"/>
<path d="M77.7341 27H74.9936C74.463 27 73.9542 27.2107 73.5791 27.5858C73.2039 27.9609 72.9932 28.4696 72.9932 29C72.9932 29.5305 73.2039 30.0392 73.5791 30.4142C73.9542 30.7893 74.463 31 74.9936 31H86.996C87.3343 31.0063 87.6673 30.9162 87.9562 30.74C88.2689 30.569 88.5302 30.3175 88.7131 30.0116C88.896 29.7056 88.9938 29.3564 88.9964 29C88.9964 28.4696 88.7856 27.9609 88.4105 27.5858C88.0353 27.2107 87.5265 27 86.996 27H77.7341Z" fill="#EEEEEE"/>
<path d="M86.996 35H80.9948C80.4642 35 79.9554 35.2107 79.5803 35.5858C79.2051 35.9609 78.9944 36.4696 78.9944 37C78.9944 37.5305 79.2051 38.0392 79.5803 38.4142C79.9554 38.7893 80.4642 39 80.9948 39H86.996C87.5265 39 88.0353 38.7893 88.4105 38.4142C88.7856 38.0392 88.9964 37.5305 88.9964 37C88.9964 36.4696 88.7856 35.9609 88.4105 35.5858C88.0353 35.2107 87.5265 35 86.996 35Z" fill="#EEEEEE"/>
</g>
<defs>
<filter id="filter0_d" x="-4" y="3.05176e-05" width="118" height="118" filterUnits="userSpaceOnUse" color-interpolation-filters="sRGB">
<feFlood flood-opacity="0" result="BackgroundImageFix"/>
<feColorMatrix in="SourceAlpha" type="matrix" values="0 0 0 0 0 0 0 0 0 0 0 0 0 0 0 0 0 0 127 0"/>
<feOffset dy="4"/>
<feGaussianBlur stdDeviation="2"/>
<feColorMatrix type="matrix" values="0 0 0 0 0 0 0 0 0 0 0 0 0 0 0 0 0 0 0.25 0"/>
<feBlend mode="normal" in2="BackgroundImageFix" result="effect1_dropShadow"/>
<feBlend mode="normal" in="SourceGraphic" in2="effect1_dropShadow" result="shape"/>
</filter>
</defs>
</svg>
