<svg width="189" height="42" viewBox="0 0 189 42" fill="none" xmlns="http://www.w3.org/2000/svg">
<g filter="url(#filter0_d)">
<path d="M61.6727 27.177H58.5216L55.8597 19.4673H55.6475L52.8921 27.177H49.741L45 11.6041H47.9712L48.2482 13.4685L51.4281 23.9747H51.6439L54.6403 15.4279L53.4748 11.6041H56.5036L56.8633 13.75L60.1007 23.9857H60.3453L63.9245 13.6366L64.3525 11.6151H67.1367L61.6727 27.177Z" fill="#6D94C4"/>
<path d="M81.6906 13.3917C82.9232 14.7297 83.5395 16.6099 83.5395 19.0324C83.5395 21.7278 82.8824 23.7993 81.5683 25.2469C80.2541 26.6945 78.3836 27.4196 75.9568 27.422C73.6906 27.422 71.9472 26.7384 70.7266 25.3712C69.5059 24.004 68.8932 22.0665 68.8884 19.5588C68.8884 16.9438 69.5467 14.9283 70.8632 13.5124C72.1798 12.0964 74.0503 11.386 76.4748 11.3811C78.7194 11.3836 80.458 12.0538 81.6906 13.3917ZM72.9748 15.1026C72.2913 15.9385 71.9496 17.3008 71.9496 19.1896C71.9496 21.2806 72.2853 22.7721 72.9568 23.664C73.6282 24.556 74.699 25.002 76.169 25.002C77.6582 25.002 78.7493 24.5816 79.4424 23.7408C80.1354 22.9 80.482 21.5279 80.482 19.6246C80.482 17.5506 80.145 16.0689 79.4712 15.1793C78.7973 14.2898 77.7074 13.8438 76.2014 13.8414C74.729 13.8414 73.6534 14.2618 72.9748 15.1026Z" fill="#6D94C4"/>
<path d="M102.32 27.177H99.1691L96.5108 19.4673H96.295L93.5432 27.177H90.3921L85.6511 11.6041H88.6187L88.8921 13.4685L92.0756 23.9747H92.2878L95.2842 15.4279L94.1223 11.6041H97.1511L97.5108 13.75L100.748 23.9857H100.993L104.568 13.6366L105 11.6151H107.781L102.32 27.177Z" fill="#6D94C4"/>
<path d="M123.608 8.38716L123.029 11.213L122.723 11.308C121.439 10.26 119.841 9.68985 118.194 9.69222C116.398 9.69222 115.028 10.3088 114.083 11.542C113.138 12.7751 112.658 14.6139 112.644 17.0583C112.644 19.566 113.124 21.4731 114.083 22.7793C115.042 24.0856 116.408 24.7375 118.18 24.7351C119.05 24.7327 119.914 24.5807 120.734 24.2854C121.579 23.9844 122.373 23.5542 123.09 23.0096L123.396 23.1961L123.151 26.1206C121.539 26.9552 119.759 27.4017 117.95 27.4256C115.197 27.4256 113.077 26.5556 111.59 24.8155C110.103 23.0754 109.359 20.5981 109.356 17.3836C109.356 14.0717 110.136 11.5127 111.694 9.70684C113.253 7.90097 115.461 6.99925 118.317 7.00168C120.171 6.96778 122 7.44667 123.608 8.38716Z" fill="#406294"/>
<path d="M139.086 27.177H136.119L135.741 25.2505L135.191 23.5397L131.763 23.5105L128.705 23.5397L128.122 25.0933L127.694 27.177H124.792L130.511 11.6041H133.935L139.086 27.177ZM134.41 21.2074L132.252 14.4007H132.04L129.561 21.2074L131.979 21.2403L134.41 21.2074Z" fill="#406294"/>
<path d="M154.471 26.4605L154.443 26.8261C153.537 27.1139 152.604 27.305 151.659 27.3963L151.209 27.1149C149.72 24.6778 148.669 22.8951 148.058 21.7667L145.367 21.7996V22.2346L145.489 27.177H142.554L142.677 22.5161L142.554 11.6041L148.364 11.5712C150.018 11.5712 151.295 11.9733 152.205 12.7702C153.115 13.5671 153.565 14.6931 153.565 16.1407C153.574 17.1247 153.292 18.0888 152.756 18.908C152.174 19.773 151.391 20.4777 150.475 20.9588C151.653 22.7647 152.985 24.5986 154.471 26.4605ZM145.389 19.4052L148.047 19.5002C149.659 19.0128 150.464 17.9868 150.464 16.4222C150.494 16.0733 150.445 15.7222 150.32 15.3958C150.195 15.0694 149.998 14.7765 149.745 14.5395C149.265 14.1374 148.521 13.9156 147.511 13.8742L145.493 13.9364L145.389 19.4052Z" fill="#406294"/>
<path d="M170.011 26.4605L169.978 26.8261C169.072 27.1139 168.139 27.305 167.194 27.3963L166.737 27.1185C165.248 24.6814 164.198 22.8987 163.586 21.7703L160.896 21.8032V22.2383L161.018 27.1807H158.079L158.201 22.5197L158.079 11.6041L163.892 11.5712C165.544 11.5712 166.824 11.9708 167.73 12.7702C168.637 13.5696 169.091 14.6931 169.093 16.1407C169.101 17.1251 168.818 18.0892 168.281 18.908C167.702 19.7738 166.919 20.4787 166.004 20.9588C167.183 22.7647 168.519 24.5986 170.011 26.4605ZM160.921 19.4052L163.583 19.5002C165.194 19.0128 166 17.9868 166 16.4222C166.03 16.0733 165.98 15.7222 165.856 15.3958C165.731 15.0694 165.534 14.7765 165.281 14.5395C164.801 14.1374 164.056 13.9156 163.047 13.8742L161.029 13.9364L160.921 19.4052Z" fill="#406294"/>
<path d="M178.694 22.8269L178.816 27.177H175.881L176.029 22.8269L175.996 21.9532L170.806 11.6041H173.957L174.291 12.5984L177.349 18.7837H177.565L180.928 12.7227L181.356 11.6041H184.446L178.727 21.891L178.694 22.8269Z" fill="#406294"/>
<path d="M7.92807 3.03779L8.05397 3.29369L8.17627 3.55324C8.77699 4.82539 9.36692 6.21453 9.36692 6.21453C9.68706 6.94565 10.6331 8.58337 13.3237 12.3633C12.9793 12.4662 12.6563 12.6323 12.3705 12.8531C12.1979 12.9994 12.1583 13.1675 12.0108 13.2589L9.32735 14.9515C9.29497 14.9734 9.15828 14.9515 9.08994 15.0428C9.02159 15.1342 9.08994 15.3682 9.06835 15.3792C8.90289 15.4632 7.51799 12.5351 7.51799 12.5351C6.76979 10.9522 6.39569 10.1626 6.07915 9.24504C5.53958 7.78279 5.259 7.05166 5.14749 6.0683C4.89569 4.1491 5.53598 2.21162 6.51799 0.548317C6.51799 0.548317 7.18706 1.52802 7.23742 1.645C7.47123 2.10561 7.70145 2.55891 7.92807 3.03779Z" fill="#406294"/>
<path d="M6.05046 9.267C6.71592 8.59802 7.22312 7.76088 7.91736 7.11383C8.12822 6.913 8.35839 6.7342 8.60441 6.58011C8.80945 6.46313 9.22312 6.45948 9.2483 6.14875C9.24689 6.03323 9.21984 5.91951 9.16916 5.81609C8.77108 4.84126 8.34422 3.87739 7.88859 2.92449C7.66916 2.45658 7.43895 1.99231 7.20513 1.5317C7.17636 1.47321 6.57564 0.398462 6.48571 0.530064C5.52887 2.19337 4.88499 4.14547 5.10801 6.06833C5.2836 7.16381 5.59797 8.23159 6.04326 9.24506L6.05046 9.267Z" fill="#6D94C4"/>
<path d="M9.95708 26.3753C9.4355 26.5581 9.46427 26.5179 9.15852 26.6129C8.98945 26.6641 8.79881 26.8433 8.6801 26.7665C8.62614 26.7263 8.64053 26.6641 8.57938 26.6129C8.51823 26.5618 8.44988 26.5398 8.19809 26.6349C7.98641 26.7167 7.79312 26.8411 7.62974 27.0004C7.29161 27.3148 7.12255 27.4757 7.06859 27.706C7.03597 27.8555 7.03817 28.0107 7.07502 28.1592C7.11187 28.3077 7.18234 28.4455 7.28082 28.5614C7.60096 28.927 8.12614 28.8977 8.44988 28.8794C8.84403 28.8464 9.22787 28.7346 9.57938 28.5504C10.6225 28.0857 11.7463 27.8371 12.8851 27.8193C13.6621 27.8193 14.0722 28.0057 14.324 28.3018C14.4246 28.4266 14.4993 28.5709 14.5434 28.7259C14.6297 29.2267 14.1513 29.6617 14.0362 29.7641C14.3773 29.957 14.6531 30.2501 14.8276 30.6049C15.005 30.9818 15.0622 31.4056 14.9913 31.8171C14.9203 32.2286 14.7248 32.6074 14.4319 32.9006C14.2137 33.0923 13.9576 33.2343 13.6808 33.3169C13.4041 33.3995 13.1131 33.4208 12.8276 33.3795C13.1325 33.7341 13.5603 33.9554 14.0218 33.9973C14.9391 34.0521 15.5218 33.2662 15.6477 33.0871C15.8624 32.7582 16.0039 32.3856 16.0623 31.9954C16.1207 31.6052 16.0946 31.2068 15.9859 30.8279C15.954 30.5092 15.82 30.2099 15.6046 29.9761C15.3671 29.7568 15.1621 29.7787 15.0542 29.5886C14.9463 29.3985 14.9607 29.1317 15.3492 28.5504L15.788 29.2816C15.8574 29.4168 15.9473 29.5401 16.0542 29.6471C16.288 29.8314 16.5788 29.9247 16.8743 29.9103C19.0002 29.9761 19.8276 29.7385 19.8276 29.7385C22.029 29.1244 23.6441 28.0533 23.5722 27.8668C23.5326 27.7718 23.0974 27.9107 22.9571 27.684C22.9297 27.6271 22.9155 27.5646 22.9155 27.5013C22.9155 27.4379 22.9297 27.3754 22.9571 27.3185C23.1585 26.8762 24.252 27.1613 25.3923 27.0553C27.2664 26.8835 28.6297 25.7173 28.583 25.5272C28.5506 25.4358 28.1945 25.5784 27.9463 25.3444C27.8588 25.2475 27.7967 25.1296 27.7659 25.0018C27.7351 24.8741 27.7365 24.7404 27.77 24.6133C27.8528 24.2478 28.1585 24.1198 28.7412 23.7287C29.5974 23.1547 30.27 22.5516 30.1801 22.3797C30.1405 22.292 29.9247 22.3797 29.7664 22.2006C29.7249 22.1588 29.694 22.1073 29.6764 22.0506C29.6589 21.9939 29.6552 21.9337 29.6657 21.8753C29.7161 21.6852 29.9966 21.6084 30.0254 21.5938C30.5362 21.4439 32.8564 19.3748 34.2161 16.9877C35.4605 14.7231 36.1201 12.1751 36.1333 9.58141C36.3024 5.39573 35.0542 1.76204 34.4355 1.7986C34.1118 1.7986 34.0758 2.83314 32.9607 3.92251C32.7395 4.14009 32.4987 4.33593 32.2412 4.50741L32.1118 4.59149C31.824 4.76696 29.5938 9.70936 24.6082 21.506C24.2331 22.1655 23.7242 22.7362 23.1154 23.1803C22.3456 23.725 22.1729 23.714 20.9067 24.3355C20.632 24.5359 20.3253 24.6868 20.0002 24.7815C19.3096 24.8838 19.0866 24.4159 18.5614 24.4159C17.2772 24.3647 16.6909 27.026 15.3851 26.9749C14.9726 26.9015 14.5643 26.8051 14.1621 26.6861C13.7269 26.5983 13.4427 26.7299 13.2413 26.5362C13.0398 26.3424 13.1441 26.0536 12.9319 25.827C12.6261 25.5016 11.9643 25.6625 11.493 25.7831C11.3492 25.8197 11.2484 25.8562 11.0686 25.9184C10.4751 26.1121 10.4319 26.2108 9.95708 26.3753Z" fill="#2F3235"/>
<path d="M25.9424 22.1531C25.7715 22.1961 25.5931 22.1988 25.4209 22.1607C25.2488 22.1227 25.0876 22.045 24.9496 21.9337C24.8417 21.8131 24.6942 21.5682 24.777 21.4512C24.777 21.4256 24.8381 21.3963 24.9317 21.4C24.8432 21.2934 24.7417 21.1988 24.6295 21.1185C23.9101 20.5994 23.0252 21.0673 21.223 21.1185C20.7957 21.1283 20.3693 21.1637 19.946 21.2245C18.4834 21.5121 17.063 21.9888 15.7194 22.6429C15.0216 22.95 13.2554 23.7652 11.482 24.4707C8.60432 25.6369 7.58633 25.8087 6.7446 25.8562C5.82417 25.9108 5.40072 26.2001 4.5 26C5.0273 26.7352 5.29067 26.897 6.15827 27.121C6.93885 27.2929 7.35971 27.0552 8.73741 26.9931C9.73741 26.9492 11.1259 27.1795 11.1367 27.1028C11.1475 27.026 11.0683 27.0589 11.0396 26.9785C10.9856 26.8286 11.1403 26.6422 11.1691 26.6129C11.5288 26.1962 12.8237 26.5544 13.0468 26.6129C13.741 26.803 13.7266 26.9163 14.3705 27.0479C14.7754 27.1246 15.1855 27.1698 15.5971 27.1832C15.8739 27.1994 16.1513 27.1994 16.4281 27.1832C16.9798 27.1445 17.521 27.0111 18.0288 26.7884C18.3437 26.6509 18.6419 26.4767 18.9173 26.2693C18.7708 26.2763 18.6254 26.2408 18.498 26.167C18.3707 26.0932 18.2666 25.9842 18.1978 25.8525C18.1722 25.7575 18.1706 25.6573 18.1933 25.5615C18.2159 25.4656 18.262 25.3771 18.3273 25.3042C18.6871 24.9094 19.482 25.4797 21.2518 25.4906C21.4171 25.5014 21.5829 25.5014 21.7482 25.4906C22.5816 25.4115 23.3784 25.1045 24.054 24.6023C23.8283 24.5625 23.6137 24.474 23.4245 24.3428C23.3201 24.2623 23.259 24.1929 23.2518 24.1088C23.2338 23.8383 23.8813 23.6299 24.4209 23.3521C24.9947 23.0484 25.5101 22.6422 25.9424 22.1531Z" fill="white"/>
<path d="M5.97403 22.9609C6.09977 22.7546 6.19776 22.5321 6.2654 22.2993C6.45245 21.2757 5.42367 20.7676 5.35893 19.6855C5.33015 19.181 5.56756 18.7753 6.04238 17.9674C6.37691 17.4044 6.67188 17.0681 8.15389 15.5583C9.16828 14.5274 9.67907 14.0047 9.95245 13.8146C10.6431 13.3065 11.0316 13.1895 12.3697 12.5168C12.9632 12.2171 13.8086 11.7857 14.8337 11.1935C14.7906 11.263 14.4093 11.8808 14.6467 12.2317C14.8409 12.5242 15.3661 12.473 15.6251 12.4437C17.2618 12.2573 19.1071 10.6013 21.1215 9.00014C22.528 7.88152 22.5927 7.92173 24.2978 6.55453C24.6899 6.24014 25.5424 5.59675 26.7942 4.48179L31.8122 0C32.523 2.21333 32.8729 4.52986 32.8481 6.85794C32.8303 8.05647 32.6758 9.24885 32.3877 10.4112C32.1927 11.1376 31.9524 11.8507 31.6683 12.5461C31.2665 13.6486 30.7769 14.7159 30.2042 15.7374C29.6378 16.725 28.993 17.664 28.2762 18.545C26.8194 20.3472 25.7402 21.6851 24.5676 21.6559H24.5064C24.0739 21.6159 23.644 21.5512 23.2186 21.4621C22.8266 21.4621 22.2474 21.6486 22.1395 22.069C22.0316 22.4894 22.2762 22.9317 22.769 23.2278C20.9704 23.9589 19.7114 23.9078 18.8733 23.7104C18.2006 23.5012 17.4963 23.417 16.7942 23.4618C16.2078 23.5166 15.2618 23.9224 15.1755 24.6096C15.1586 24.8797 15.2406 25.1467 15.4057 25.359C15.5106 25.5087 15.6439 25.6356 15.7977 25.7322C15.9515 25.8289 16.1227 25.8934 16.3014 25.922C16.0895 26.0491 15.8604 26.1439 15.6215 26.2035C15.0184 26.3316 14.3911 26.2704 13.823 26.028C12.305 25.4577 8.84813 25.6003 6.56036 26.2254C6.30137 26.2949 5.63231 26.6677 4.96684 26.4192C4.60713 26.2803 4.17547 25.933 4.17188 25.5528C4.17188 25.3481 4.29058 25.2311 4.57475 24.8984C5.10892 24.3061 5.57811 23.6564 5.97403 22.9609Z" fill="#406294"/>
<path d="M15.607 12.4291C15.3444 12.4584 14.8228 12.5132 14.6286 12.2207C14.3912 11.8552 14.7725 11.2484 14.8156 11.1789C13.7977 11.7638 12.9451 12.2061 12.348 12.5022C11.0063 13.1785 10.625 13.2955 9.93435 13.8C9.67536 13.9937 9.16457 14.5128 8.13579 15.5474C6.65378 17.0571 6.35881 17.3752 6.02428 17.9564C5.54946 18.7643 5.30485 19.1701 5.34083 19.6746C5.40557 20.7712 6.41996 21.2611 6.2473 22.2847C6.17958 22.5174 6.0816 22.7399 5.95593 22.9463C5.5634 23.6413 5.09785 24.2909 4.56744 24.8838C4.29766 25.2238 4.17896 25.3371 4.17896 25.5418C4.19873 25.6907 4.25308 25.8327 4.33752 25.956C4.42196 26.0793 4.53406 26.1804 4.66457 26.251C4.64634 26.1232 4.66094 25.9927 4.70695 25.8723C4.75296 25.7519 4.82881 25.6456 4.92716 25.5638C5.80845 24.7741 6.81924 24.1015 7.33363 22.9829C7.58804 22.3845 7.74127 21.7468 7.78687 21.0966C7.81891 20.6758 7.82851 20.2536 7.81565 19.8317C7.8732 18.5157 8.95953 17.5616 10.0171 16.5636C11.0171 15.6241 11.9883 14.6042 13.4379 14.5677C14.1574 14.5494 14.8984 14.6993 15.5962 14.5128C16.1808 14.3577 16.728 14.0828 17.2041 13.7049C18.1682 12.9299 18.4092 11.793 18.9092 10.7329C17.7473 11.6249 16.6358 12.3194 15.607 12.4291Z" fill="#6D94C4"/>
<path d="M19.4675 14.0376C20.1784 13.7656 20.8272 13.3489 21.374 12.813C21.6708 12.4907 21.937 12.1407 22.1689 11.7674L21.5107 12.2865C20.0934 13.4271 19.8092 13.5879 18.9387 14.2606C19.1078 14.1875 19.2804 14.1144 19.4675 14.0376Z" fill="#406294"/>
<path d="M26.8381 9.45995C28.1402 10.1107 28.7158 9.62446 29.374 10.3592C29.8237 10.8674 29.7337 11.2951 30.2913 11.9092C30.6637 12.3026 31.1276 12.5942 31.6402 12.7573L31.705 12.5855C31.987 11.8893 32.2272 11.1764 32.4244 10.4506C32.7134 9.28854 32.8667 8.0959 32.8812 6.89736C32.9013 4.56848 32.5465 2.25192 31.8309 0.0394211L26.7949 4.51756C26.3021 4.95623 25.874 5.32179 25.5071 5.61424C24.9352 6.08582 24.41 6.67437 24.2985 6.58298C24.2956 6.57668 24.2941 6.56982 24.2941 6.56287C24.2941 6.55593 24.2956 6.54906 24.2985 6.54277C24.1486 6.91149 24.1233 7.32035 24.2265 7.70526C24.5215 8.66668 25.8021 8.94451 26.8381 9.45995Z" fill="#6D94C4"/>
<path d="M24.018 9.87018C23.7303 10.1005 23.4173 10.5318 23.6583 10.7841C23.741 10.8561 23.8446 10.8985 23.9533 10.9047C24.312 10.9499 24.6756 10.8796 24.9929 10.7037C24.923 11.2782 24.6903 11.8198 24.3231 12.2624C23.9558 12.7051 23.47 13.0297 22.9245 13.1968C22.7377 13.2269 22.5604 13.3007 22.4065 13.4125C22.2662 13.5441 22.2231 13.8182 22.3778 13.9169C22.4515 13.9532 22.5342 13.9659 22.6152 13.9535C23.1612 13.9202 23.6982 13.7967 24.2051 13.5879C24.2261 13.8464 24.1851 14.1063 24.0855 14.345C23.9858 14.5838 23.8306 14.7945 23.6332 14.9588C23.2405 15.2791 22.8297 15.5757 22.4029 15.8471C21.9349 16.2002 21.536 16.6391 21.2267 17.1412C21.1156 17.2881 21.0361 17.4571 20.9933 17.6372C20.9506 17.8173 20.9455 18.0045 20.9785 18.1867C21.0729 18.4263 21.2474 18.6243 21.4713 18.746C22.7842 19.5941 24.5756 19.3675 25.9533 18.5121C27.331 17.6566 28.3454 16.2565 29.1403 14.7943C30.3617 12.5377 31.1377 10.0603 31.4245 7.50134C31.4893 6.94568 31.8526 4.15644 31.2555 4.1601C30.8957 4.1601 29.9029 5.22754 29.5792 5.48343L27.849 6.82139L24.018 9.87018Z" fill="#2F3235"/>
<path d="M4.13295 25.3407C4.18177 25.2829 4.24717 25.242 4.32 25.2238C4.52143 25.1616 5.09697 25.1031 5.29841 25.476C5.33854 25.5688 5.35926 25.669 5.35926 25.7703C5.35926 25.8716 5.33854 25.9718 5.29841 26.0646C5.28291 26.1363 5.25281 26.2039 5.21007 26.263C5.16732 26.3222 5.11287 26.3717 5.05021 26.4082C4.96912 26.4312 4.88396 26.4353 4.8011 26.4201C4.71824 26.4049 4.63984 26.3708 4.57179 26.3205C4.51064 26.2876 4.061 26.0317 4.05021 25.6369C4.0396 25.531 4.0692 25.4251 4.13295 25.3407Z" fill="#2F3235"/>
<path d="M9.30918 23.5385V23.608C9.30872 23.6493 9.31995 23.6899 9.34155 23.725C9.3634 23.7464 9.38939 23.763 9.41787 23.7737C9.44635 23.7844 9.47671 23.789 9.50702 23.7871C10.1308 23.8329 10.757 23.7442 11.3447 23.5268C11.9323 23.3095 12.4682 22.9684 12.9171 22.5259C13.302 22.1311 13.7552 21.6669 13.2768 21.1697C12.9045 20.8244 12.4426 20.5948 11.9459 20.508C11.8351 20.4808 11.7217 20.4661 11.6077 20.4642C11.2587 20.4822 10.9193 20.5861 10.6185 20.767C10.3178 20.9478 10.0647 21.2002 9.88112 21.5024C9.50255 22.1114 9.30404 22.8182 9.30918 23.5385Z" fill="white"/>
<path d="M12.565 31.6979C12.5154 31.9992 12.5154 32.3068 12.565 32.6081C12.6441 33.0285 12.6981 33.3393 12.9427 33.4818C13.2227 33.5986 13.5368 33.5986 13.8168 33.4818C13.9837 33.4345 14.1426 33.3618 14.288 33.2662C14.5046 33.1349 14.6921 32.9594 14.8384 32.7507C15.0798 32.4038 15.2126 31.9911 15.2197 31.5663C15.2411 31.2186 15.1742 30.8712 15.0254 30.5573C14.9346 30.3642 14.8131 30.1876 14.6657 30.0346C14.5261 29.87 14.3404 29.7527 14.1334 29.6983C13.5218 29.6105 12.9931 30.5354 12.9211 30.6305C12.7334 30.9588 12.6112 31.3215 12.5614 31.6979H12.565Z" fill="#406294"/>
<path d="M12.5465 31.8624C12.5204 32.0939 12.5289 32.3281 12.5717 32.557C12.5747 32.8159 12.6482 33.0689 12.7839 33.2881C12.8581 33.3985 12.9673 33.4798 13.0933 33.5184C13.3774 33.5915 13.6472 33.3356 13.8127 33.1748C14.0348 32.9738 14.1958 32.7125 14.2767 32.4217C14.3668 32.0545 14.3287 31.6669 14.1688 31.325C14.0798 31.1538 13.9658 30.9973 13.8307 30.8608C13.658 30.6743 13.5681 30.5829 13.453 30.5756C13.1868 30.55 12.9566 30.9412 12.8055 31.1825C12.6762 31.3897 12.5882 31.6207 12.5465 31.8624Z" fill="#6D94C4"/>
<path d="M9.95678 22.0763C9.98928 22.3113 10.0702 22.5368 10.1942 22.7379C10.2702 22.9112 10.4058 23.0503 10.5755 23.1291C10.6579 23.1489 10.7426 23.1575 10.8273 23.1547C11.0458 23.1798 11.2667 23.1364 11.4604 23.0304L11.5215 22.9902C11.6923 22.8492 11.8176 22.6595 11.8812 22.4455C11.9899 22.1696 12.027 21.8701 11.9891 21.5755C11.9891 21.4841 11.874 20.7237 11.4748 20.6287C11.3129 20.5884 11.1582 20.6652 10.8561 20.8151C10.7127 20.8846 10.5775 20.9705 10.4532 21.071C10.2242 21.2072 10.0478 21.4187 9.95318 21.6705C9.92492 21.8044 9.92615 21.9429 9.95678 22.0763Z" fill="#2F3235"/>
<path opacity="0.5" d="M12.0253 21.824C12.0809 21.8175 12.1334 21.7946 12.1764 21.7582C12.2102 21.7213 12.2338 21.6759 12.2447 21.6266C12.2987 21.4694 12.3383 21.2611 12.2016 21.1624C12.1426 21.1272 12.0757 21.1083 12.0073 21.1075C11.824 21.0801 11.6385 21.0703 11.4534 21.0783C11.3393 21.0846 11.2283 21.1184 11.1296 21.177C11.052 21.2316 10.99 21.306 10.9498 21.3927C10.9498 21.3927 10.8563 21.6157 12.0253 21.824Z" fill="white"/>
</g>
<defs>
<filter id="filter0_d" x="0" y="0" width="189" height="42" filterUnits="userSpaceOnUse" color-interpolation-filters="sRGB">
<feFlood flood-opacity="0" result="BackgroundImageFix"/>
<feColorMatrix in="SourceAlpha" type="matrix" values="0 0 0 0 0 0 0 0 0 0 0 0 0 0 0 0 0 0 127 0"/>
<feOffset dy="4"/>
<feGaussianBlur stdDeviation="2"/>
<feColorMatrix type="matrix" values="0 0 0 0 0 0 0 0 0 0 0 0 0 0 0 0 0 0 0.25 0"/>
<feBlend mode="normal" in2="BackgroundImageFix" result="effect1_dropShadow"/>
<feBlend mode="normal" in="SourceGraphic" in2="effect1_dropShadow" result="shape"/>
</filter>
</defs>
</svg>
