<svg width="30" height="30" viewBox="0 0 30 30" fill="none" xmlns="http://www.w3.org/2000/svg">
<path d="M10.8562 4.41187C8.25458 4.55405 5.75826 5.47579 3.69863 7.05469C1.35001 11.6107 0.0849226 16.6375 0 21.7512C0 21.7512 2.15753 25.4105 7.8339 25.5883C7.8339 25.5883 8.78425 24.4702 9.54623 23.5046C7.74506 23.0489 6.15947 21.9891 5.05993 20.506C5.05993 20.506 5.31678 20.6839 5.77911 20.938C5.77911 20.938 5.83048 20.938 5.88185 20.9888L6.11301 21.1159C6.71771 21.4403 7.34418 21.7233 7.98801 21.9629C9.20881 22.4529 10.4767 22.819 11.7723 23.0556C13.9704 23.465 16.2265 23.465 18.4247 23.0556C19.7016 22.8223 20.9499 22.456 22.149 21.9629C23.1857 21.5885 24.1765 21.0998 25.1027 20.506C23.9558 22.0133 22.3105 23.0745 20.4538 23.5046C21.2243 24.4448 22.1661 25.5375 22.1661 25.5375C27.8425 25.3596 30 21.7003 30 21.7257C29.9059 16.6194 28.635 11.6016 26.2842 7.05469C24.2206 5.45967 21.7082 4.5364 19.0925 4.41187L18.7329 4.81845C21.072 5.42007 23.2531 6.51202 25.1284 8.02034C22.7387 6.73763 20.1234 5.91825 17.4229 5.60622C15.6976 5.41808 13.9558 5.43514 12.2346 5.65704C12.0878 5.6616 11.9418 5.67861 11.7979 5.70787C9.77221 5.9438 7.79462 6.48364 5.93322 7.30881C4.98288 7.71539 4.41781 8.02034 4.41781 8.02034C4.41781 8.02034 6.52397 6.01281 11.1301 4.71681L10.8904 4.41187H10.8562ZM10.1969 13.7888C10.5582 13.7963 10.9143 13.8754 11.2442 14.0213C11.5741 14.1672 11.8711 14.377 12.1177 14.6383C12.3643 14.8997 12.5555 15.2073 12.68 15.5429C12.8044 15.8785 12.8597 16.2355 12.8425 16.5926C12.8574 16.9473 12.801 17.3015 12.6766 17.6345C12.5522 17.9676 12.3623 18.2729 12.1179 18.5329C11.8734 18.7929 11.5793 19.0023 11.2525 19.149C10.9257 19.2958 10.5728 19.377 10.214 19.3879C9.49256 19.3592 8.81192 19.049 8.32096 18.5252C7.83001 18.0014 7.5687 17.3065 7.59418 16.5926C7.57927 16.2381 7.6353 15.8842 7.75904 15.5512C7.88278 15.2182 8.0718 14.9126 8.31524 14.6521C8.55868 14.3916 8.85174 14.1812 9.17759 14.033C9.50345 13.8849 9.85567 13.8019 10.214 13.7888H10.1969ZM19.6147 13.7888C20.337 13.8196 21.0176 14.1317 21.5083 14.6568C21.9991 15.182 22.2601 15.8778 22.2346 16.5926C22.2495 16.9466 22.1934 17.3001 22.0695 17.6326C21.9457 17.9652 21.7566 18.2701 21.513 18.53C21.2695 18.7898 20.9763 18.9994 20.6505 19.1467C20.3247 19.2939 19.9727 19.3759 19.6147 19.3879C18.8932 19.3592 18.2126 19.049 17.7216 18.5252C17.2307 18.0014 16.9694 17.3065 16.9949 16.5926C16.98 16.2381 17.036 15.8842 17.1597 15.5512C17.2835 15.2182 17.4725 14.9126 17.7159 14.6521C17.9594 14.3916 18.2524 14.1812 18.5783 14.033C18.9041 13.8849 19.2564 13.8019 19.6147 13.7888V13.7888Z" fill="#10111B"/>
</svg>
