<svg width="30" height="30" viewBox="0 0 30 30" fill="none" xmlns="http://www.w3.org/2000/svg">
<path fill-rule="evenodd" clip-rule="evenodd" d="M0.882324 7.04119C0.882324 4.61433 2.85754 2.64697 5.29409 2.64697H24.7059C27.1424 2.64697 29.1176 4.61433 29.1176 7.04119V20.2238C29.1176 22.6507 27.1424 24.6181 24.7059 24.6181V26.4759C24.7059 27.7032 23.4752 28.5526 22.3215 28.1217L12.7941 24.6181H5.29409C2.85754 24.6181 0.882324 22.6507 0.882324 20.2238V7.04119ZM6.61235 7.04119C5.8843 7.04119 5.29409 7.6314 5.29409 8.35945C5.29409 9.08751 5.8843 9.67772 6.61235 9.67772H22.5052C23.2333 9.67772 23.8235 9.08751 23.8235 8.35945C23.8235 7.6314 23.2333 7.04119 22.5052 7.04119H6.61235ZM5.29409 13.6325C5.29409 12.9045 5.8843 12.3142 6.61235 12.3142H23.3876C24.1156 12.3142 24.7059 12.9045 24.7059 13.6325C24.7059 14.3606 24.1156 14.9508 23.3876 14.9508H6.61235C5.8843 14.9508 5.29409 14.3606 5.29409 13.6325ZM6.61235 17.5873C5.8843 17.5873 5.29409 18.1775 5.29409 18.9056C5.29409 19.6336 5.8843 20.2238 6.61235 20.2238H12.7994C13.5274 20.2238 14.1176 19.6336 14.1176 18.9056C14.1176 18.1775 13.5274 17.5873 12.7994 17.5873H6.61235Z" fill="#10111B"/>
</svg>
