<svg width="30" height="30" viewBox="0 0 30 30" fill="none" xmlns="http://www.w3.org/2000/svg">
<path d="M27.7676 15.1415C27.7407 13.3158 27.3185 11.5176 26.5299 9.87068C25.7414 8.2238 24.6052 6.76741 23.1997 5.60178C21.7942 4.43616 20.1527 3.58901 18.3883 3.11868C16.624 2.64834 14.7786 2.566 12.9793 2.87732C11.8775 2.18943 10.6128 1.80657 9.31443 1.7679C8.01609 1.72923 6.73077 2.03613 5.58997 2.65721C4.44918 3.2783 3.49385 4.19127 2.82172 5.30272C2.1496 6.41418 1.7848 7.68423 1.76465 8.98293C1.76476 10.2689 2.1123 11.531 2.77053 12.6357C2.60007 13.4601 2.51433 14.2997 2.51465 15.1415C2.52619 16.788 2.86195 18.4161 3.50275 19.9328C4.14354 21.4495 5.07683 22.8252 6.24931 23.9812C7.42179 25.1373 8.81051 26.0511 10.3362 26.6704C11.8618 27.2898 13.4946 27.6026 15.1411 27.591C15.9172 27.579 16.6907 27.4993 17.4529 27.3527C18.5158 27.9266 19.7038 28.2296 20.9117 28.235C21.8665 28.242 22.8133 28.0609 23.6981 27.7019C24.5829 27.343 25.3883 26.8133 26.0683 26.1431C26.7484 25.4729 27.2898 24.6753 27.6616 23.7959C28.0334 22.9165 28.2283 21.9725 28.2352 21.0177C28.2382 19.9052 27.9782 18.8078 27.4764 17.8149C27.6676 16.9366 27.7652 16.0404 27.7676 15.1415ZM21.5911 21.0883C20.9342 21.9592 20.0439 22.6262 19.0235 23.0117C17.7646 23.4894 16.4255 23.7201 15.0793 23.6911C13.5291 23.7427 11.989 23.422 10.5882 22.7559C9.75883 22.325 9.04478 21.7018 8.50582 20.9383C8.00676 20.2916 7.72288 19.5048 7.69405 18.6884C7.69325 18.4663 7.7401 18.2467 7.83142 18.0442C7.92275 17.8418 8.05644 17.6613 8.22347 17.5149C8.58347 17.1851 9.05911 17.0107 9.54699 17.0296C9.95004 17.0254 10.3424 17.1593 10.6588 17.409C10.9797 17.7056 11.2299 18.0705 11.3911 18.4766C11.5827 18.9283 11.8286 19.355 12.1235 19.7472C12.407 20.0957 12.7701 20.3711 13.1823 20.5501C13.7611 20.7871 14.3837 20.8984 15.0088 20.8765C15.9047 20.9168 16.7924 20.6895 17.5588 20.2236C17.8429 20.0731 18.0823 19.8503 18.2527 19.5776C18.4232 19.3049 18.5186 18.9921 18.5293 18.6708C18.5411 18.45 18.5037 18.2295 18.4198 18.025C18.3359 17.8205 18.2075 17.6372 18.044 17.4884C17.6441 17.144 17.17 16.8964 16.6588 16.765C16.0852 16.5885 15.2999 16.3944 14.3382 16.2003C13.2082 15.9733 12.1008 15.6456 11.0293 15.2209C10.1762 14.8866 9.41855 14.3472 8.82347 13.6504C8.27042 12.9379 7.98333 12.0549 8.0117 11.1534C8.00514 10.2382 8.31707 9.34927 8.89405 8.63883C9.53373 7.85411 10.385 7.26926 11.347 6.95361C12.5399 6.54974 13.7937 6.3557 15.0529 6.38011C16.0461 6.3636 17.0363 6.49443 17.9911 6.76833C18.7447 6.97926 19.4534 7.32612 20.0823 7.79181C20.5827 8.15282 21.0007 8.61595 21.3087 9.15057C21.5601 9.58888 21.6967 10.0836 21.7058 10.5887C21.7004 10.8111 21.6508 11.0301 21.5599 11.2331C21.469 11.4361 21.3387 11.6189 21.1764 11.771C21.0078 11.9432 20.8057 12.0789 20.5827 12.17C20.3596 12.261 20.1202 12.3054 19.8793 12.3004C19.4898 12.3279 19.1037 12.2118 18.794 11.974C18.4912 11.6827 18.2353 11.3464 18.0352 10.977C17.7603 10.4435 17.3754 9.97434 16.9058 9.60055C16.2693 9.22637 15.5331 9.05695 14.797 9.11528C14.0311 9.08111 13.2715 9.26794 12.6088 9.65349C12.3839 9.76441 12.1926 9.93322 12.0546 10.1426C11.9165 10.3519 11.8368 10.5942 11.8235 10.8446C11.8186 11.1088 11.9095 11.3658 12.0793 11.5681C12.2859 11.808 12.5417 12.0006 12.8293 12.1328C13.1551 12.2927 13.4947 12.4227 13.844 12.521C14.197 12.6181 14.7882 12.7592 15.6088 12.9445C16.6323 13.1651 17.5764 13.4033 18.4058 13.668C19.1629 13.8959 19.8867 14.2222 20.5587 14.6386C21.1495 15.0081 21.6403 15.5171 21.9882 16.1209C22.3448 16.7938 22.5211 17.5477 22.4999 18.309C22.5071 19.3054 22.1982 20.2785 21.6176 21.0883H21.5911Z" fill="#10111B"/>
</svg>
