<svg width="114" height="113" viewBox="0 0 114 113" fill="none" xmlns="http://www.w3.org/2000/svg">
<g filter="url(#filter0_d)">
<path d="M103.68 30.5462C102.362 28.1865 100.85 25.9405 99.1597 23.8314C96.7971 20.8794 94.114 18.1984 91.1597 15.8377C89.049 14.1484 86.8013 12.6377 84.4397 11.3212C77.0891 7.22726 68.8234 5.0534 60.4083 5.001C51.9932 4.9486 43.7009 7.01935 36.2999 11.0214H9.99998C8.40869 11.0214 6.88257 11.6531 5.75735 12.7774C4.63214 13.9017 4 15.4267 4 17.0167L4 37.241V52.9888L10.4 48.7321C9.53722 55.5068 10.0736 62.3863 11.976 68.9457C13.8785 75.5051 17.1065 81.6051 21.4608 86.869C25.8152 92.133 31.2033 96.449 37.2924 99.5505C43.3815 102.652 50.0423 104.473 56.8635 104.902C63.6846 105.33 70.5212 104.356 76.951 102.041C83.3809 99.7259 89.2674 96.1179 94.247 91.4402C99.2267 86.7625 103.194 81.1143 105.903 74.8446C108.612 68.5748 110.007 61.8165 110 54.9872C110.033 46.4325 107.856 38.014 103.68 30.5462ZM7.99999 45.5146V37.241V17.0167C7.99999 16.4867 8.2107 15.9784 8.58577 15.6036C8.96084 15.2288 9.46955 15.0183 9.99998 15.0183H63.9998C64.5302 15.0183 65.0389 15.2288 65.414 15.6036C65.7891 15.9784 65.9998 16.4867 65.9998 17.0167V38.9997C65.9998 39.5297 65.7891 40.038 65.414 40.4128C65.0389 40.7876 64.5302 40.9981 63.9998 40.9981H16.22H14.86L13.84 41.6776L11.46 43.2563L7.99999 45.5146ZM91.9997 88.0415V75.2115V54.9872C91.9997 53.3972 91.3675 51.8722 90.2423 50.7479C89.1171 49.6235 87.591 48.9919 85.9997 48.9919H31.9999C30.4086 48.9919 28.8825 49.6235 27.7573 50.7479C26.6321 51.8722 25.9999 53.3972 25.9999 54.9872V76.9701C25.9999 78.5602 26.6321 80.0851 27.7573 81.2095C28.8825 82.3338 30.4086 82.9655 31.9999 82.9655H79.9997L90.1597 89.7202C89.7797 90.0799 89.3997 90.3997 88.9997 90.7194C80.8188 97.3975 70.5634 101.016 59.9998 100.951C47.7999 100.951 36.0996 96.1088 27.473 87.4889C18.8464 78.8689 14 67.1777 14 54.9872C14.0007 51.866 14.3156 48.7527 14.94 45.6945L16 44.995H63.9998C65.5911 44.995 67.1172 44.3633 68.2424 43.239C69.3676 42.1147 69.9998 40.5897 69.9998 38.9997V17.0167C69.9998 15.4267 69.3676 13.9017 68.2424 12.7774C67.1172 11.6531 65.5911 11.0214 63.9998 11.0214H46.6198C52.5707 9.20562 58.8276 8.61127 65.0142 9.2741C71.2009 9.93693 77.1894 11.8433 82.6197 14.8784C84.7639 16.0967 86.8101 17.4798 88.7397 19.0152C91.4132 21.1883 93.847 23.6403 95.9997 26.3295C97.5457 28.2761 98.9366 30.3408 100.16 32.5047C105.13 41.3622 107.025 51.6151 105.549 61.6623C104.073 71.7096 99.3084 80.9855 91.9997 88.0415ZM87.9997 54.9872V75.1715V83.4451L82.2197 79.6081L81.2197 78.9286H79.9997L31.9999 78.9686C31.4695 78.9686 30.9608 78.758 30.5857 78.3832C30.2106 78.0085 29.9999 77.5002 29.9999 76.9701V54.9872C29.9999 54.4572 30.2106 53.9489 30.5857 53.5741C30.9608 53.1993 31.4695 52.9888 31.9999 52.9888H85.9997C86.5301 52.9888 87.0388 53.1993 87.4139 53.5741C87.789 53.9489 87.9997 54.4572 87.9997 54.9872Z" fill="#6D94C4"/>
<path d="M16 25.0105H28C28.5304 25.0105 29.0391 24.8 29.4142 24.4252C29.7892 24.0504 29.9999 23.5421 29.9999 23.0121C29.9974 22.6255 29.8827 22.2479 29.6697 21.9251C29.4567 21.6023 29.1546 21.3482 28.7999 21.1935C28.5507 21.0728 28.2769 21.0113 28 21.0136H16C15.4696 21.0136 14.9609 21.2242 14.5858 21.599C14.2107 21.9738 14 22.4821 14 23.0121C14 23.5421 14.2107 24.0504 14.5858 24.4252C14.9609 24.8 15.4696 25.0105 16 25.0105Z" fill="#EEEEEE"/>
<path d="M37.9997 25.0105H57.9997C58.5301 25.0105 59.0388 24.7999 59.4139 24.4251C59.789 24.0504 59.9997 23.542 59.9997 23.012C59.9997 22.482 59.789 21.9737 59.4139 21.5989C59.0388 21.2241 58.5301 21.0136 57.9997 21.0136H37.9997C37.4693 21.0136 36.9606 21.2241 36.5855 21.5989C36.2105 21.9737 35.9998 22.482 35.9998 23.012C35.9998 23.542 36.2105 24.0504 36.5855 24.4251C36.9606 24.7999 37.4693 25.0105 37.9997 25.0105Z" fill="#EEEEEE"/>
<path d="M16 35.0028H35.9999C36.5304 35.0028 37.0391 34.7922 37.4141 34.4175C37.7892 34.0427 37.9999 33.5344 37.9999 33.0043C37.9999 32.4743 37.7892 31.966 37.4141 31.5912C37.0391 31.2164 36.5304 31.0059 35.9999 31.0059H16C15.4696 31.0059 14.9609 31.2164 14.5858 31.5912C14.2107 31.966 14 32.4743 14 33.0043C14.0055 33.4832 14.183 33.9442 14.5 34.3033C14.6856 34.5201 14.9154 34.6947 15.1742 34.8154C15.4329 34.936 15.7145 34.9999 16 35.0028Z" fill="#EEEEEE"/>
<path d="M58 31.0059H46C45.4696 31.0059 44.9609 31.2164 44.5858 31.5912C44.2107 31.966 44 32.4743 44 33.0043C44 33.5344 44.2107 34.0427 44.5858 34.4175C44.9609 34.7922 45.4696 35.0028 46 35.0028H58C58.5304 35.0028 59.0391 34.7922 59.4142 34.4175C59.7892 34.0427 59.9999 33.5344 59.9999 33.0043C59.9999 32.4743 59.7892 31.966 59.4142 31.5912C59.0391 31.2164 58.5304 31.0059 58 31.0059Z" fill="#EEEEEE"/>
<path d="M79.9997 58.9842H67.9997C67.4693 58.9842 66.9606 59.1947 66.5855 59.5695C66.2105 59.9443 65.9998 60.4526 65.9998 60.9826C65.9998 61.5126 66.2105 62.0209 66.5855 62.3957C66.9606 62.7705 67.4693 62.9811 67.9997 62.9811H79.9997C80.5301 62.9811 81.0388 62.7705 81.4139 62.3957C81.789 62.0209 81.9997 61.5126 81.9997 60.9826C81.9997 60.4526 81.789 59.9443 81.4139 59.5695C81.0388 59.1947 80.5301 58.9842 79.9997 58.9842Z" fill="#EEEEEE"/>
<path d="M37.9997 62.9811H57.9997C58.5301 62.9811 59.0388 62.7705 59.4139 62.3957C59.789 62.0209 59.9997 61.5126 59.9997 60.9826C59.9997 60.4526 59.789 59.9443 59.4139 59.5695C59.0388 59.1947 58.5301 58.9842 57.9997 58.9842H37.9997C37.4693 58.9842 36.9606 59.1947 36.5855 59.5695C36.2105 59.9443 35.9998 60.4526 35.9998 60.9826C35.9998 61.5126 36.2105 62.0209 36.5855 62.3957C36.9606 62.7705 37.4693 62.9811 37.9997 62.9811Z" fill="#EEEEEE"/>
<path d="M79.9997 68.9763H59.9997C59.4693 68.9763 58.9606 69.1869 58.5855 69.5616C58.2105 69.9364 57.9998 70.4447 57.9998 70.9748C57.9998 71.5048 58.2105 72.0131 58.5855 72.3879C58.9606 72.7627 59.4693 72.9732 59.9997 72.9732H79.9997C80.5301 72.9732 81.0388 72.7627 81.4139 72.3879C81.789 72.0131 81.9997 71.5048 81.9997 70.9748C81.9997 70.4447 81.789 69.9364 81.4139 69.5616C81.0388 69.1869 80.5301 68.9763 79.9997 68.9763Z" fill="#EEEEEE"/>
<path d="M49.9997 68.9763H37.9997C37.4693 68.9763 36.9606 69.1869 36.5855 69.5616C36.2105 69.9364 35.9998 70.4447 35.9998 70.9748C35.9998 71.5048 36.2105 72.0131 36.5855 72.3879C36.9606 72.7627 37.4693 72.9732 37.9997 72.9732H49.9997C50.5301 72.9732 51.0388 72.7627 51.4139 72.3879C51.789 72.0131 51.9997 71.5048 51.9997 70.9748C51.9997 70.4447 51.789 69.9364 51.4139 69.5616C51.0388 69.1869 50.5301 68.9763 49.9997 68.9763Z" fill="#EEEEEE"/>
</g>
<defs>
<filter id="filter0_d" x="-2" y="3.05176e-05" width="118" height="118" filterUnits="userSpaceOnUse" color-interpolation-filters="sRGB">
<feFlood flood-opacity="0" result="BackgroundImageFix"/>
<feColorMatrix in="SourceAlpha" type="matrix" values="0 0 0 0 0 0 0 0 0 0 0 0 0 0 0 0 0 0 127 0"/>
<feOffset dy="4"/>
<feGaussianBlur stdDeviation="2"/>
<feColorMatrix type="matrix" values="0 0 0 0 0 0 0 0 0 0 0 0 0 0 0 0 0 0 0.25 0"/>
<feBlend mode="normal" in2="BackgroundImageFix" result="effect1_dropShadow"/>
<feBlend mode="normal" in="SourceGraphic" in2="effect1_dropShadow" result="shape"/>
</filter>
</defs>
</svg>
