<svg width="112" height="113" viewBox="0 0 112 113" fill="none" xmlns="http://www.w3.org/2000/svg">
<g filter="url(#filter0_d)">
<path d="M106.117 41.5306C105.065 37.6893 103.538 33.9937 101.571 30.529C100.252 28.1671 98.7378 25.919 97.0449 23.808C96.1637 22.7079 95.2224 21.6477 94.221 20.6076C92.6307 18.9172 90.9242 17.3399 89.1139 15.8869C87.0004 14.1961 84.7495 12.684 82.3847 11.3662C72.5883 5.89201 61.2342 3.86456 50.1455 5.60943C39.0569 7.35429 28.877 12.7702 21.2403 20.9876H15.8729C14.8106 20.9876 13.7918 21.4091 13.0406 22.1594C12.2894 22.9096 11.8674 23.9272 11.8674 24.9882V35.4097C10.0041 39.7369 8.78295 44.3124 8.2424 48.9917L6.96063 49.3318C5.94977 49.6046 5.08607 50.2619 4.55451 51.163C4.02295 52.064 3.8658 53.1371 4.11671 54.1525L6.7203 63.8139L7.76174 67.6745L16.3936 99.8792C16.6226 100.728 17.1253 101.479 17.824 102.014C18.5227 102.549 19.3785 102.839 20.259 102.84C20.6111 102.844 20.9619 102.797 21.3004 102.7L34.4786 99.1791C41.6979 103.016 49.7532 105.015 57.9309 105C58.4316 105 58.9323 105 59.433 105C66.6625 104.794 73.7615 103.027 80.2417 99.8192C83.5254 98.1762 86.6098 96.1628 89.4344 93.8183C95.2271 89.1347 99.8999 83.2186 103.112 76.5017C106.324 69.7847 107.994 62.4363 108 54.9926C108.001 50.4398 107.367 45.9089 106.117 41.5306ZM15.8729 24.9882H85.9696V30.9891H15.8729V24.9882ZM85.9696 72.3352H15.8729V42.9909H81.9641C82.0648 43.189 82.1453 43.3967 82.2044 43.6109L82.0843 42.9909H86.0898V72.3352H85.9696ZM16.4537 34.9897H85.9696V38.9903H15.8729V36.2099C15.9931 35.8098 16.2535 35.3897 16.4537 34.9897ZM11.8674 66.5743H11.6271L10.5856 62.7738L11.8674 62.4337V66.5743ZM11.8674 52.0722V58.2931L9.56422 58.9932L7.98204 53.1123L11.8674 52.0722ZM29.712 96.2987L20.259 98.839L15.7127 81.8566L14.1105 75.8557C14.6581 76.1283 15.261 76.272 15.8729 76.2757H29.5318L22.9827 78.036C22.4516 78.105 21.9696 78.3818 21.6428 78.8057C21.3161 79.2296 21.1713 79.7658 21.2403 80.2963C21.3094 80.8268 21.5866 81.3082 22.011 81.6346C22.4354 81.9609 22.9723 82.1055 23.5035 82.0366H24.0242L41.4282 77.3759C41.6856 77.3053 41.9263 77.1839 42.1361 77.019C42.3459 76.8542 42.5206 76.649 42.6499 76.4157H57.7707L58.0511 76.9958C58.28 77.845 58.7827 78.5952 59.4814 79.1303C60.1801 79.6655 61.0359 79.9557 61.9164 79.9563C62.2685 79.9604 62.6194 79.9132 62.9579 79.8163L76.0559 76.3157H86.0698C86.3359 76.3463 86.6047 76.3463 86.8709 76.3157L88.0725 80.7764L35.0193 94.8785L29.712 96.2987ZM86.8909 90.7779C84.3028 92.9087 81.4728 94.7281 78.4593 96.1986C72.5019 99.1686 65.9683 100.807 59.3128 100.999H57.9309C51.9464 101.008 46.0188 99.8392 40.4869 97.5589L89.0138 84.577C90.0386 84.3005 90.9117 83.6291 91.4411 82.7102C91.9706 81.7913 92.1133 80.7001 91.8377 79.6762L89.9551 72.6752C89.9657 72.5621 89.9657 72.4482 89.9551 72.3352V24.9882C89.9551 23.9272 89.5331 22.9096 88.7819 22.1594C88.0307 21.4091 87.0119 20.9876 85.9496 20.9876H26.8881C34.9698 13.5906 45.4333 9.32347 56.3891 8.95665C67.3449 8.58983 78.071 12.1475 86.6305 18.9873C88.3183 20.3364 89.9047 21.8072 91.3771 23.388C92.2983 24.3281 93.1595 25.3883 93.9606 26.3084C95.5019 28.2575 96.8881 30.3241 98.1064 32.4893C99.9127 35.6762 101.312 39.0765 102.272 42.6108C103.425 46.6369 104.005 50.8051 103.994 54.9926C103.996 61.8537 102.46 68.6283 99.501 74.8201C96.5416 81.012 92.233 86.4643 86.8909 90.7779Z" fill="#6D94C4"/>
<path d="M77.2373 53.2124C76.8249 53.0698 76.3919 52.9955 75.9555 52.9923H61.9362C60.8739 52.9923 59.855 53.4138 59.1039 54.1641C58.3527 54.9143 57.9307 55.9319 57.9307 56.9929V60.9935C57.9307 62.0545 58.3527 63.0721 59.1039 63.8224C59.855 64.5726 60.8739 64.9941 61.9362 64.9941H76.2359C77.2489 64.9231 78.1971 64.4705 78.8887 63.7278C79.5802 62.9851 79.9635 62.0078 79.9611 60.9935V56.9929C79.959 56.1576 79.6953 55.3439 79.2068 54.6659C78.7183 53.9879 78.0296 53.4797 77.2373 53.2124ZM61.9362 60.9935V57.313L63.0978 56.9929H75.9555V60.9935H61.9362Z" fill="#EEEEEE"/>
<path d="M41.909 52.9923H23.8841C23.3529 52.9923 22.8435 53.2031 22.4679 53.5782C22.0924 53.9533 21.8813 54.4621 21.8813 54.9926C21.8813 55.5231 22.0924 56.0319 22.4679 56.4071C22.8435 56.7822 23.3529 56.9929 23.8841 56.9929H41.909C42.4401 56.9929 42.9496 56.7822 43.3251 56.4071C43.7007 56.0319 43.9117 55.5231 43.9117 54.9926C43.9069 54.619 43.8033 54.2533 43.6113 53.9325C43.4309 53.6442 43.18 53.4066 42.8821 53.2421C42.5843 53.0776 42.2493 52.9917 41.909 52.9923Z" fill="#EEEEEE"/>
<path d="M33.8982 60.9937H23.8844C23.3532 60.9937 22.8438 61.2044 22.4682 61.5796C22.0926 61.9547 21.8816 62.4635 21.8816 62.994C21.8766 63.2864 21.9455 63.5753 22.0819 63.8341C22.2413 64.1782 22.4954 64.47 22.8146 64.6754C23.1337 64.8808 23.5047 64.9914 23.8844 64.9943H33.8982C34.4138 64.9922 34.9088 64.7916 35.2801 64.4342C35.4657 64.2473 35.6126 64.0256 35.7122 63.7819C35.8119 63.5382 35.8624 63.2772 35.8609 63.014C35.8663 62.4869 35.6631 61.979 35.2956 61.6006C34.928 61.2223 34.4259 61.0042 33.8982 60.9937Z" fill="#EEEEEE"/>
<path d="M37.1829 84.6369C37.0423 84.1292 36.7068 83.6974 36.2493 83.4352C35.7919 83.1731 35.2493 83.1017 34.7395 83.2367L25.0662 85.8171C24.7456 85.908 24.4508 86.0724 24.205 86.2971C23.9371 86.5473 23.7431 86.8662 23.6442 87.2189C23.5454 87.5716 23.5453 87.9447 23.6442 88.2974C23.7577 88.7375 24.0179 89.1259 24.382 89.3986C24.746 89.6713 25.1922 89.812 25.647 89.7977C25.8194 89.8253 25.9952 89.8253 26.1677 89.7977L27.3894 89.4776L35.841 87.2173C36.1031 87.1425 36.3471 87.0152 36.5582 86.843C36.7693 86.6708 36.9429 86.4574 37.0685 86.2158C37.1942 85.9742 37.2691 85.7096 37.2888 85.4381C37.3084 85.1666 37.2724 84.894 37.1829 84.6369Z" fill="#6D94C4"/>
</g>
<defs>
<filter id="filter0_d" x="-3" y="3.05176e-05" width="118" height="118" filterUnits="userSpaceOnUse" color-interpolation-filters="sRGB">
<feFlood flood-opacity="0" result="BackgroundImageFix"/>
<feColorMatrix in="SourceAlpha" type="matrix" values="0 0 0 0 0 0 0 0 0 0 0 0 0 0 0 0 0 0 127 0"/>
<feOffset dy="4"/>
<feGaussianBlur stdDeviation="2"/>
<feColorMatrix type="matrix" values="0 0 0 0 0 0 0 0 0 0 0 0 0 0 0 0 0 0 0.25 0"/>
<feBlend mode="normal" in2="BackgroundImageFix" result="effect1_dropShadow"/>
<feBlend mode="normal" in="SourceGraphic" in2="effect1_dropShadow" result="shape"/>
</filter>
</defs>
</svg>
