<svg width="75" height="13" viewBox="0 0 75 13" fill="none" xmlns="http://www.w3.org/2000/svg">
<path d="M3.48369 0.398438H0.102539V12.5178H3.48369C5.26647 12.5178 6.57795 12.0775 7.705 11.113C9.05746 9.95973 9.85664 8.24037 9.85664 6.45812C9.83615 2.8936 7.23369 0.398438 3.48369 0.398438ZM6.18861 9.49844C5.47139 10.1694 4.52877 10.463 3.03287 10.463H2.41811V2.45328H3.03287C4.52877 2.45328 5.43041 2.72586 6.18861 3.43876C6.98779 4.17263 7.4591 5.28392 7.4591 6.45812C7.4591 7.61134 6.98779 8.76457 6.18861 9.49844Z" fill="#EEEEEE"/>
<path d="M13.2172 0.398438H10.9016V12.5178H13.2172V0.398438Z" fill="#EEEEEE"/>
<path d="M18.8525 5.05302C17.459 4.52883 17.0697 4.17238 17.0697 3.52238C17.0697 2.76754 17.7869 2.18044 18.791 2.18044C19.4877 2.18044 20.041 2.47399 20.6558 3.16593L21.8648 1.55141C20.8812 0.670762 19.6926 0.209473 18.3812 0.209473C16.291 0.209473 14.6926 1.69818 14.6926 3.66915C14.6926 5.34657 15.4304 6.18528 17.6025 6.98205C18.5041 7.31754 18.9754 7.52722 19.2008 7.67399C19.6722 7.98851 19.8976 8.42883 19.8976 8.93205C19.8976 9.91754 19.1394 10.6304 18.1148 10.6304C17.0082 10.6304 16.1271 10.0643 15.5943 9.01592L14.0984 10.4837C15.164 12.0772 16.4345 12.7901 18.1967 12.7901C20.5943 12.7901 22.2746 11.1546 22.2746 8.80625C22.2746 6.89818 21.4959 6.03851 18.8525 5.05302Z" fill="#EEEEEE"/>
<path d="M22.9917 6.45821C22.9917 10.0227 25.7171 12.7695 29.2417 12.7695C30.2253 12.7695 31.086 12.5598 32.131 12.0566V9.26789C31.2089 10.2114 30.3892 10.5889 29.3442 10.5889C27.0286 10.5889 25.3687 8.8695 25.3687 6.41627C25.3687 4.08885 27.0696 2.26466 29.2417 2.26466C30.3483 2.26466 31.1679 2.66305 32.131 3.62756V0.838851C31.1269 0.314658 30.2868 0.10498 29.2827 0.10498C25.7991 0.125948 22.9917 2.93563 22.9917 6.45821Z" fill="#EEEEEE"/>
<path d="M50.4299 8.53393L47.2742 0.398438H44.7537L49.7946 12.8323H51.0241L56.1471 0.398438H53.6471L50.4299 8.53393Z" fill="#EEEEEE"/>
<path d="M57.1926 12.5178H63.7295V10.463H59.4877V7.19199H63.5656V5.13715H59.4877V2.45328H63.7295V0.398438H57.1926V12.5178Z" fill="#EEEEEE"/>
<path d="M72.8686 3.98392C72.8686 1.71941 71.3522 0.398438 68.6882 0.398438H65.2661V12.5178H67.5817V7.65328H67.8891L71.0858 12.5178H73.9341L70.2046 7.42263C71.9055 7.04521 72.8686 5.82908 72.8686 3.98392ZM68.2374 5.97586H67.5612V2.3065H68.2784C69.7128 2.3065 70.4915 2.91457 70.4915 4.10973C70.4915 5.32586 69.7128 5.97586 68.2374 5.97586Z" fill="#EEEEEE"/>
<path d="M39.1802 12.9372C42.6546 12.9372 45.4711 10.0552 45.4711 6.50008C45.4711 2.94497 42.6546 0.0629883 39.1802 0.0629883C35.7057 0.0629883 32.8892 2.94497 32.8892 6.50008C32.8892 10.0552 35.7057 12.9372 39.1802 12.9372Z" fill="url(#paint0_linear)"/>
<path opacity="0.65" d="M39.1802 12.9372C42.6546 12.9372 45.4711 10.0552 45.4711 6.50008C45.4711 2.94497 42.6546 0.0629883 39.1802 0.0629883C35.7057 0.0629883 32.8892 2.94497 32.8892 6.50008C32.8892 10.0552 35.7057 12.9372 39.1802 12.9372Z" fill="url(#paint1_linear)"/>
<path d="M74.3449 0.859899C74.3449 0.650222 74.2015 0.524414 73.9556 0.524414H73.6277V1.59377H73.8736V1.17442L74.1605 1.59377H74.4679L74.1195 1.15345C74.2629 1.11151 74.3449 1.00667 74.3449 0.859899ZM73.9146 1.00667H73.8736V0.734091H73.9146C74.0375 0.734091 74.099 0.776026 74.099 0.880865C74.099 0.964736 74.0375 1.00667 73.9146 1.00667Z" fill="#231F20"/>
<path d="M73.9961 0.125977C73.4838 0.125977 73.0945 0.54533 73.0945 1.04856C73.0945 1.57275 73.5043 1.97114 73.9961 1.97114C74.4879 1.97114 74.8978 1.55178 74.8978 1.04856C74.8978 0.54533 74.4879 0.125977 73.9961 0.125977ZM73.9961 1.82436C73.6068 1.82436 73.2789 1.48888 73.2789 1.06952C73.2789 0.65017 73.6068 0.314685 73.9961 0.314685C74.3855 0.314685 74.7133 0.671138 74.7133 1.06952C74.7133 1.48888 74.3855 1.82436 73.9961 1.82436Z" fill="#231F20"/>
<defs>
<linearGradient id="paint0_linear" x1="42.4041" y1="11.6651" x2="37.9011" y2="4.77469" gradientUnits="userSpaceOnUse">
<stop stop-color="#F89F20"/>
<stop offset="0.2502" stop-color="#F79A20"/>
<stop offset="0.5331" stop-color="#F68D20"/>
<stop offset="0.6196" stop-color="#F58720"/>
<stop offset="0.7232" stop-color="#F48120"/>
<stop offset="1" stop-color="#F37521"/>
</linearGradient>
<linearGradient id="paint1_linear" x1="41.7151" y1="11.5698" x2="35.1085" y2="-1.04995" gradientUnits="userSpaceOnUse">
<stop stop-color="#F58720"/>
<stop offset="0.3587" stop-color="#E16F27"/>
<stop offset="0.703" stop-color="#D4602C"/>
<stop offset="0.9816" stop-color="#D05B2E"/>
</linearGradient>
</defs>
</svg>
