<svg width="34" height="34" viewBox="0 0 34 34" fill="none" xmlns="http://www.w3.org/2000/svg">
<path fill-rule="evenodd" clip-rule="evenodd" d="M2 8C2 4.68629 4.68629 2 8 2H26C29.3137 2 32 4.68629 32 8V26C32 29.3137 29.3137 32 26 32H8C4.68629 32 2 29.3137 2 26V8ZM17 26C21.9706 26 26 21.9706 26 17C26 12.0294 21.9706 8 17 8C12.0294 8 8 12.0294 8 17C8 21.9706 12.0294 26 17 26ZM17 23C20.3137 23 23 20.3137 23 17C23 13.6863 20.3137 11 17 11C13.6863 11 11 13.6863 11 17C11 20.3137 13.6863 23 17 23ZM26 10C27.1046 10 28 9.10457 28 8C28 6.89543 27.1046 6 26 6C24.8954 6 24 6.89543 24 8C24 9.10457 24.8954 10 26 10Z" fill="#6D94C4"/>
</svg>
