<svg width="76" height="20" viewBox="0 0 76 20" fill="none" xmlns="http://www.w3.org/2000/svg">
<path d="M14.287 1.98863C13.4084 0.992837 11.8202 0.565918 9.78845 0.565918H3.89163C3.47594 0.565918 3.12271 0.866536 3.05762 1.27414L0.602321 16.7586C0.553509 17.0639 0.791271 17.3405 1.10251 17.3405H4.74295L5.65726 11.5739L5.62892 11.7545C5.694 11.3469 6.04461 11.0463 6.45978 11.0463H8.18972C11.5882 11.0463 14.2492 9.67369 15.0266 5.70303C15.0497 5.58561 15.0696 5.47131 15.0869 5.35962C14.9888 5.30795 14.9888 5.30795 15.0869 5.35962C15.3184 3.89202 15.0852 2.89309 14.287 1.98863Z" fill="#003087"/>
<path d="M51.899 9.31054H49.9397C49.7523 9.31054 49.577 9.40292 49.472 9.5574L46.769 13.5155L45.6237 9.71188C45.5518 9.4739 45.3314 9.31054 45.0815 9.31054H43.1558C42.9233 9.31054 42.7596 9.53809 42.8346 9.75677L44.9918 16.0541L42.9627 18.9011C42.8036 19.1244 42.9644 19.4334 43.2398 19.4334H45.197C45.3823 19.4334 45.556 19.3431 45.662 19.1918L52.1777 9.84027C52.3336 9.61637 52.1729 9.31054 51.899 9.31054ZM38.8002 13.0833C38.6117 14.1908 37.7279 14.9345 36.5999 14.9345C36.0347 14.9345 35.5817 14.7534 35.2909 14.4111C35.0028 14.0718 34.8941 13.588 34.9855 13.0499C35.1608 11.9518 36.0593 11.1846 37.1699 11.1846C37.7237 11.1846 38.1729 11.3673 38.4695 11.7128C38.7681 12.0609 38.8857 12.5473 38.8002 13.0833ZM41.5168 9.31048H39.5675C39.4006 9.31048 39.2584 9.43104 39.2321 9.59544L39.1466 10.1372L39.0106 9.94095C38.5881 9.33188 37.647 9.12782 36.7075 9.12782C34.554 9.12782 32.7144 10.7509 32.3564 13.027C32.1701 14.1626 32.4346 15.2477 33.0823 16.005C33.677 16.7007 34.5257 16.9903 35.5371 16.9903C37.2733 16.9903 38.2359 15.8818 38.2359 15.8818L38.1488 16.4204C38.1163 16.625 38.2753 16.8103 38.4842 16.8103H40.2393C40.518 16.8103 40.7547 16.6093 40.7983 16.3359L41.8522 9.70035C41.8848 9.49576 41.7252 9.31048 41.5168 9.31048ZM29.8191 9.35704C29.5966 10.81 28.4807 10.81 27.4011 10.81H26.787L27.2179 8.09716C27.2436 7.93328 27.3858 7.81272 27.5527 7.81272H27.8346C28.5694 7.81272 29.2633 7.81272 29.6212 8.22868C29.8354 8.47763 29.8999 8.84714 29.8191 9.35704ZM29.3493 5.56592H25.2785C24.9998 5.56592 24.7631 5.76737 24.7195 6.04085L23.0736 16.4205C23.041 16.6251 23.2001 16.8104 23.4084 16.8104H25.3525C25.6307 16.8104 25.8674 16.6089 25.911 16.336L26.3555 13.5354C26.3986 13.2619 26.6358 13.0605 26.914 13.0605H28.202C30.8835 13.0605 32.4313 11.7703 32.8355 9.21247C33.0176 8.09455 32.8428 7.21566 32.3164 6.60033C31.7375 5.92395 30.7114 5.56592 29.3493 5.56592Z" fill="#002F86"/>
<path d="M72.8496 5.85114L71.1789 16.4208C71.1464 16.6254 71.3054 16.8106 71.5138 16.8106H73.1944C73.4726 16.8106 73.7098 16.6092 73.7528 16.3357L75.4004 5.95604C75.4329 5.75146 75.2739 5.56618 75.065 5.56618H73.1849C73.0175 5.56618 72.8753 5.68674 72.8496 5.85114ZM67.8353 13.0833C67.6469 14.1908 66.7631 14.9345 65.6351 14.9345C65.0699 14.9345 64.6169 14.7534 64.3261 14.4111C64.0374 14.0718 63.9293 13.588 64.0207 13.0499C64.196 11.9518 65.0945 11.1846 66.2051 11.1846C66.7589 11.1846 67.2081 11.3673 67.5047 11.7128C67.8033 12.0609 67.9209 12.5473 67.8353 13.0833ZM70.552 9.31049H68.6027C68.4358 9.31049 68.2935 9.43105 68.2673 9.59545L68.1817 10.1372L68.0453 9.94095C67.6233 9.33188 66.6822 9.12782 65.7427 9.12782C63.5892 9.12782 61.7496 10.7509 61.3916 13.027C61.2053 14.1626 61.4698 15.2477 62.1175 16.005C62.7122 16.7007 63.5609 16.9903 64.5723 16.9903C66.3085 16.9903 67.2711 15.8818 67.2711 15.8818L67.184 16.4204C67.1514 16.625 67.3105 16.8103 67.5194 16.8103H69.2745C69.5532 16.8103 69.7899 16.6093 69.8335 16.3359L70.8874 9.70035C70.92 9.49576 70.7604 9.31049 70.552 9.31049ZM58.8542 9.35704C58.6317 10.81 57.5158 10.81 56.4362 10.81H55.8221L56.253 8.09716C56.2788 7.93328 56.421 7.81272 56.5879 7.81272H56.8697C57.6045 7.81272 58.2984 7.81272 58.6564 8.22868C58.8705 8.47763 58.9351 8.84714 58.8542 9.35704ZM58.3845 5.56592H54.3137C54.035 5.56592 53.7982 5.76737 53.7547 6.04085L52.1087 16.4205C52.0762 16.6251 52.2357 16.8104 52.4436 16.8104H54.5325C54.7273 16.8104 54.8931 16.6695 54.9235 16.4784L55.3907 13.5354C55.4337 13.2619 55.671 13.0605 55.9491 13.0605H57.2371C59.9187 13.0605 61.4665 11.7703 61.8706 9.21247C62.0527 8.09455 61.878 7.21566 61.3515 6.60033C60.7726 5.92395 59.7465 5.56592 58.3845 5.56592Z" fill="#009CDE"/>
<path d="M14.287 1.98863C13.4084 0.992837 11.8202 0.565918 9.78845 0.565918H3.89163C3.47594 0.565918 3.12271 0.866536 3.05762 1.27414L0.602321 16.7586C0.553509 17.0639 0.791271 17.3405 1.10251 17.3405H4.74295L5.65726 11.5739L5.62892 11.7545C5.694 11.3469 6.04461 11.0463 6.45978 11.0463H8.18972C11.5882 11.0463 14.2492 9.67369 15.0266 5.70303C15.0497 5.58561 15.0696 5.47131 15.0869 5.35962C14.9888 5.30795 14.9888 5.30795 15.0869 5.35962C15.3184 3.89202 15.0852 2.89309 14.287 1.98863Z" fill="#003087"/>
<path d="M6.6398 5.37893C6.67864 5.13363 6.83715 4.9327 7.05025 4.83093C7.14735 4.785 7.25547 4.75943 7.36884 4.75943H11.9918C12.5392 4.75943 13.0499 4.79492 13.5165 4.86955C13.6504 4.89093 13.78 4.91548 13.906 4.94366C14.032 4.9713 14.1542 5.00264 14.2729 5.03708C14.3322 5.05428 14.3904 5.07207 14.4476 5.09084C14.677 5.16704 14.8906 5.25576 15.0869 5.35962C15.3184 3.8915 15.0852 2.89309 14.287 1.98863C13.4079 0.992837 11.8202 0.565918 9.78845 0.565918H3.8911C3.47594 0.565918 3.12271 0.866535 3.05762 1.27414L0.602322 16.758C0.553509 17.0639 0.791272 17.34 1.10199 17.34H4.74296L5.65726 11.5734L6.6398 5.37893Z" fill="#002F86"/>
<path d="M15.087 5.35986C15.0692 5.47207 15.0497 5.58585 15.0266 5.70328C14.2493 9.67341 11.5883 11.0465 8.18979 11.0465H6.45932C6.04416 11.0465 5.69355 11.3472 5.62899 11.7548L4.74303 17.3402L4.49162 18.9247C4.4491 19.1919 4.65695 19.4341 4.92883 19.4341H7.99769C8.3609 19.4341 8.67004 19.1711 8.72673 18.8146L8.75667 18.6591L9.33506 15.0141L9.37235 14.8126C9.42903 14.4562 9.73818 14.1931 10.1014 14.1931H10.5606C13.5335 14.1931 15.8612 12.9922 16.5414 9.51893C16.8254 8.06751 16.6784 6.85564 15.9273 6.00442C15.6996 5.7466 15.4167 5.53366 15.087 5.35986" fill="#009CDE"/>
<path d="M14.2731 5.03693C14.1545 5.00249 14.0322 4.97117 13.9062 4.94351C13.7803 4.91583 13.6501 4.89132 13.5168 4.86992C13.0496 4.79477 12.5395 4.75928 11.9915 4.75928H7.36907C7.25517 4.75928 7.14705 4.78487 7.05048 4.8313C6.83686 4.93307 6.67887 5.13348 6.64003 5.3793L5.65749 11.5738L5.62915 11.7544C5.69371 11.3468 6.04432 11.0462 6.45948 11.0462H8.18995C11.5884 11.0462 14.2495 9.67354 15.0268 5.70288C15.0499 5.58545 15.0693 5.47168 15.0872 5.35947C14.8903 5.25613 14.6772 5.16689 14.4479 5.09121C14.3907 5.07242 14.3324 5.05413 14.2731 5.03693Z" fill="#012069"/>
</svg>
