<svg width="34" height="34" viewBox="0 0 34 34" fill="none" xmlns="http://www.w3.org/2000/svg">
<path d="M31.47 17.1604C31.4396 15.0913 30.961 13.0533 30.0673 11.1868C29.1736 9.32038 27.886 7.66979 26.2931 6.34875C24.7001 5.02772 22.8398 4.06761 20.8402 3.53457C18.8406 3.00152 16.7491 2.9082 14.71 3.26102C13.4613 2.48142 12.0279 2.04751 10.5564 2.00368C9.08496 1.95986 7.62827 2.30768 6.33537 3.01157C5.04247 3.71547 3.95976 4.75017 3.19802 6.00982C2.43628 7.26947 2.02284 8.70886 2 10.1807C2.00013 11.6382 2.39401 13.0685 3.14 14.3205C2.94681 15.2548 2.84964 16.2064 2.85 17.1604C2.86309 19.0264 3.24361 20.8716 3.96984 22.5906C4.69608 24.3095 5.7538 25.8686 7.08262 27.1788C8.41143 28.489 9.98531 29.5246 11.7144 30.2265C13.4435 30.9285 15.2939 31.283 17.16 31.2698C18.0395 31.2562 18.9162 31.1659 19.78 30.9998C20.9846 31.6502 22.331 31.9936 23.7 31.9998C24.7821 32.0077 25.8551 31.8024 26.8579 31.3956C27.8606 30.9888 28.7734 30.3885 29.5442 29.6289C30.3149 28.8694 30.9285 27.9655 31.3498 26.9688C31.7712 25.9721 31.9921 24.9022 32 23.8201C32.0034 22.5593 31.7087 21.3156 31.14 20.1903C31.3567 19.1948 31.4673 18.1792 31.47 17.1604ZM24.47 23.9001C23.7255 24.8872 22.7165 25.6431 21.56 26.08C20.1333 26.6214 18.6156 26.8828 17.09 26.85C15.333 26.9085 13.5876 26.545 12 25.7901C11.0601 25.3018 10.2508 24.5954 9.63999 23.7301C9.0744 22.9972 8.75266 22.1055 8.71999 21.1803C8.71908 20.9286 8.77217 20.6796 8.87568 20.4502C8.97918 20.2208 9.1307 20.0162 9.31999 19.8503C9.728 19.4765 10.2671 19.2789 10.82 19.3003C11.2768 19.2956 11.7214 19.4473 12.08 19.7303C12.4437 20.0665 12.7273 20.4799 12.91 20.9403C13.1271 21.4522 13.4058 21.9357 13.74 22.3802C14.0614 22.7752 14.4729 23.0873 14.94 23.2902C15.596 23.5588 16.3016 23.6849 17.01 23.6601C18.0254 23.7058 19.0315 23.4482 19.9 22.9202C20.222 22.7496 20.4933 22.4971 20.6865 22.188C20.8796 21.879 20.9878 21.5245 21 21.1602C21.0134 20.9101 20.9709 20.6601 20.8758 20.4284C20.7807 20.1966 20.6352 19.9889 20.45 19.8203C19.9967 19.4299 19.4594 19.1493 18.88 19.0003C18.23 18.8004 17.34 18.5804 16.25 18.3604C14.9693 18.1032 13.7143 17.7317 12.5 17.2504C11.5331 16.8715 10.6744 16.2602 9.99999 15.4705C9.37321 14.6631 9.04784 13.6622 9.07999 12.6406C9.07255 11.6034 9.42608 10.5959 10.08 9.79074C10.805 8.90139 11.7698 8.23856 12.86 7.88082C14.2119 7.42311 15.6329 7.20319 17.06 7.23085C18.1856 7.21214 19.3078 7.36042 20.39 7.67083C21.244 7.9099 22.0472 8.303 22.76 8.83078C23.3271 9.23993 23.8009 9.76481 24.15 10.3707C24.4349 10.8675 24.5896 11.4281 24.6 12.0006C24.5939 12.2526 24.5376 12.5009 24.4346 12.7309C24.3316 12.961 24.1839 13.1682 24 13.3406C23.8089 13.5356 23.5799 13.6895 23.3271 13.7927C23.0743 13.8959 22.803 13.9462 22.53 13.9406C22.0885 13.9717 21.651 13.8401 21.3 13.5706C20.9568 13.2405 20.6667 12.8593 20.44 12.4406C20.1284 11.836 19.6922 11.3043 19.16 10.8807C18.4386 10.4566 17.6042 10.2646 16.77 10.3307C15.9019 10.292 15.041 10.5037 14.29 10.9407C14.0351 11.0664 13.8183 11.2577 13.6619 11.495C13.5055 11.7322 13.4151 12.0069 13.4 12.2906C13.3945 12.59 13.4975 12.8813 13.69 13.1106C13.9241 13.3824 14.214 13.6007 14.54 13.7506C14.9092 13.9318 15.2941 14.0791 15.69 14.1906C16.09 14.3005 16.76 14.4605 17.69 14.6705C18.85 14.9205 19.92 15.1905 20.86 15.4905C21.718 15.7487 22.5383 16.1185 23.3 16.5904C23.9694 17.0093 24.5258 17.5862 24.92 18.2704C25.3241 19.0331 25.524 19.8874 25.5 20.7503C25.5081 21.8795 25.158 22.9823 24.5 23.9001H24.47Z" fill="#6D94C4"/>
</svg>
