<svg width="34" height="34" viewBox="0 0 34 34" fill="none" xmlns="http://www.w3.org/2000/svg">
<path d="M32.5967 4.24739C32.4547 4.12687 32.2817 4.04627 32.0964 4.01422C31.911 3.98216 31.7203 3.99984 31.5444 4.06539C25.9498 6.08046 8.75296 12.3857 1.71971 14.9208C1.50368 14.9993 1.3182 15.1418 1.18923 15.3283C1.06025 15.5148 0.99423 15.7359 1.0004 15.9608C0.996636 16.1943 1.07149 16.4224 1.21347 16.6103C1.35545 16.7982 1.5567 16.9354 1.78631 17.0009C4.94328 17.9239 9.08597 19.2109 9.08597 19.2109C9.08597 19.2109 11.0174 24.8012 12.0298 27.7523C12.0876 27.9332 12.1911 28.0971 12.3307 28.2289C12.4704 28.3607 12.6418 28.456 12.829 28.5063C13.018 28.5506 13.2153 28.5489 13.4035 28.5013C13.5916 28.4536 13.7649 28.3616 13.908 28.2333L18.0374 24.4371C18.0374 24.4371 22.7928 27.8433 25.4836 29.7153C25.6959 29.8616 25.9417 29.9548 26.1996 29.9865C26.4574 30.0182 26.7193 29.9876 26.9621 29.8973C27.2044 29.8084 27.4201 29.662 27.5899 29.4714C27.7597 29.2807 27.8781 29.0518 27.9345 28.8053C29.0801 23.5011 31.8908 10.0586 32.9697 5.30043C33.0179 5.10849 33.0084 4.90704 32.9423 4.72026C32.8761 4.53348 32.7561 4.36929 32.5967 4.24739ZM27.122 9.20057L13.5617 21.07L13.0555 25.6332L10.8176 18.4309L26.6691 8.56355C26.7456 8.51175 26.8397 8.49093 26.9317 8.50548C27.0236 8.52003 27.1061 8.56881 27.162 8.64155C27.2016 8.6785 27.2324 8.72352 27.2522 8.77341C27.2721 8.82331 27.2803 8.87685 27.2765 8.93023C27.2727 8.9836 27.2569 9.0355 27.2302 9.08223C27.2035 9.12896 27.1665 9.16937 27.122 9.20057Z" fill="#6D94C4"/>
</svg>
