<svg width="30" height="30" viewBox="0 0 30 30" fill="none" xmlns="http://www.w3.org/2000/svg">
<path d="M28.7618 3.74779C28.6365 3.64145 28.4839 3.57033 28.3203 3.54205C28.1568 3.51376 27.9884 3.52937 27.8333 3.5872C22.8968 5.3652 7.72317 10.9286 1.51736 13.1655C1.32674 13.2348 1.16309 13.3605 1.04929 13.525C0.935487 13.6896 0.877233 13.8847 0.882673 14.0832C0.879356 14.2891 0.945407 14.4905 1.07068 14.6563C1.19596 14.822 1.37353 14.9431 1.57613 15.0009C4.36169 15.8153 8.017 16.9509 8.017 16.9509C8.017 16.9509 9.72125 21.8835 10.6145 24.4874C10.6655 24.6471 10.7568 24.7917 10.88 24.9079C11.0033 25.0242 11.1545 25.1084 11.3197 25.1527C11.4865 25.1918 11.6605 25.1903 11.8265 25.1483C11.9926 25.1063 12.1454 25.0251 12.2717 24.9118L15.9153 21.5623C15.9153 21.5623 20.1113 24.5677 22.4855 26.2195C22.6728 26.3486 22.8897 26.4308 23.1172 26.4588C23.3447 26.4868 23.5758 26.4598 23.7901 26.3801C24.0038 26.3016 24.1942 26.1725 24.344 26.0043C24.4938 25.836 24.5983 25.634 24.6481 25.4165C25.6589 20.7364 28.1389 8.87533 29.0909 4.67694C29.1335 4.50758 29.125 4.32984 29.0667 4.16503C29.0083 4.00022 28.9024 3.85535 28.7618 3.74779V3.74779ZM23.9311 8.11825L11.9662 18.5913L11.5195 22.6176L9.54495 16.2627L23.5315 7.55617C23.599 7.51046 23.6821 7.49209 23.7632 7.50493C23.8443 7.51777 23.9171 7.56081 23.9664 7.62499C24.0014 7.65759 24.0286 7.69731 24.0461 7.74134C24.0635 7.78536 24.0709 7.83261 24.0675 7.8797C24.0641 7.9268 24.0502 7.9726 24.0266 8.01383C24.003 8.05506 23.9704 8.09071 23.9311 8.11825V8.11825Z" fill="#10111B"/>
</svg>
