<svg width="30" height="31" viewBox="0 0 30 31" fill="none" xmlns="http://www.w3.org/2000/svg">
<path d="M10.8562 4.91211C8.25458 5.0543 5.75826 5.97603 3.69863 7.55493C1.35001 12.1109 0.0849226 17.1377 0 22.2514C0 22.2514 2.15753 25.9107 7.8339 26.0886C7.8339 26.0886 8.78425 24.9705 9.54623 24.0048C7.74506 23.5492 6.15947 22.4894 5.05993 21.0062C5.05993 21.0062 5.31678 21.1841 5.77911 21.4382C5.77911 21.4382 5.83048 21.4382 5.88185 21.489L6.11301 21.6161C6.71771 21.9405 7.34418 22.2235 7.98801 22.4632C9.20881 22.9531 10.4767 23.3192 11.7723 23.5559C13.9704 23.9653 16.2265 23.9653 18.4247 23.5559C19.7016 23.3226 20.9499 22.9563 22.149 22.4632C23.1857 22.0888 24.1765 21.6 25.1027 21.0062C23.9558 22.5135 22.3105 23.5748 20.4538 24.0048C21.2243 24.945 22.1661 26.0378 22.1661 26.0378C27.8425 25.8599 30 22.2006 30 22.226C29.9059 17.1196 28.635 12.1019 26.2842 7.55493C24.2206 5.95991 21.7082 5.03664 19.0925 4.91211L18.7329 5.3187C21.072 5.92032 23.2531 7.01227 25.1284 8.52058C22.7387 7.23787 20.1234 6.41849 17.4229 6.10646C15.6976 5.91832 13.9558 5.93539 12.2346 6.15729C12.0878 6.16185 11.9418 6.17885 11.7979 6.20811C9.77221 6.44404 7.79462 6.98388 5.93322 7.80905C4.98288 8.21564 4.41781 8.52058 4.41781 8.52058C4.41781 8.52058 6.52397 6.51305 11.1301 5.21705L10.8904 4.91211H10.8562ZM10.1969 14.289C10.5582 14.2966 10.9143 14.3756 11.2442 14.5215C11.5741 14.6674 11.8711 14.8772 12.1177 15.1386C12.3643 15.3999 12.5555 15.7075 12.68 16.0431C12.8044 16.3788 12.8597 16.7357 12.8425 17.0928C12.8574 17.4476 12.801 17.8017 12.6766 18.1348C12.5522 18.4678 12.3623 18.7732 12.1179 19.0332C11.8734 19.2931 11.5793 19.5025 11.2525 19.6493C10.9257 19.796 10.5728 19.8772 10.214 19.8881C9.49256 19.8594 8.81192 19.5493 8.32096 19.0254C7.83001 18.5016 7.5687 17.8067 7.59418 17.0928C7.57927 16.7383 7.6353 16.3844 7.75904 16.0514C7.88278 15.7184 8.0718 15.4129 8.31524 15.1523C8.55868 14.8918 8.85174 14.6814 9.17759 14.5333C9.50345 14.3851 9.85567 14.3021 10.214 14.289H10.1969ZM19.6147 14.289C20.337 14.3199 21.0176 14.6319 21.5083 15.1571C21.9991 15.6823 22.2601 16.378 22.2346 17.0928C22.2495 17.4469 22.1934 17.8004 22.0695 18.1329C21.9457 18.4654 21.7566 18.7704 21.513 19.0302C21.2695 19.2901 20.9763 19.4997 20.6505 19.6469C20.3247 19.7941 19.9727 19.8761 19.6147 19.8881C18.8932 19.8594 18.2126 19.5493 17.7216 19.0254C17.2307 18.5016 16.9694 17.8067 16.9949 17.0928C16.98 16.7383 17.036 16.3844 17.1597 16.0514C17.2835 15.7184 17.4725 15.4129 17.7159 15.1523C17.9594 14.8918 18.2524 14.6814 18.5783 14.5333C18.9041 14.3851 19.2564 14.3021 19.6147 14.289V14.289Z" fill="#161828"/>
</svg>
