<svg width="30" height="31" viewBox="0 0 30 31" fill="none" xmlns="http://www.w3.org/2000/svg">
<path fill-rule="evenodd" clip-rule="evenodd" d="M1.76465 7.55877C1.76465 4.63491 4.13491 2.26465 7.05877 2.26465H22.9411C25.865 2.26465 28.2352 4.63491 28.2352 7.55877V23.4411C28.2352 26.365 25.865 28.7352 22.9411 28.7352H7.05877C4.13491 28.7352 1.76465 26.365 1.76465 23.4411V7.55877ZM14.9999 23.4411C19.3857 23.4411 22.9411 19.8857 22.9411 15.4999C22.9411 11.1142 19.3857 7.55877 14.9999 7.55877C10.6142 7.55877 7.05877 11.1142 7.05877 15.4999C7.05877 19.8857 10.6142 23.4411 14.9999 23.4411ZM14.9999 20.7941C17.9238 20.7941 20.2941 18.4238 20.2941 15.4999C20.2941 12.5761 17.9238 10.2058 14.9999 10.2058C12.0761 10.2058 9.70582 12.5761 9.70582 15.4999C9.70582 18.4238 12.0761 20.7941 14.9999 20.7941ZM22.9411 9.32347C23.9157 9.32347 24.7058 8.53339 24.7058 7.55877C24.7058 6.58415 23.9157 5.79406 22.9411 5.79406C21.9665 5.79406 21.1764 6.58415 21.1764 7.55877C21.1764 8.53339 21.9665 9.32347 22.9411 9.32347Z" fill="#161828"/>
</svg>
