<svg width="30" height="31" viewBox="0 0 30 31" fill="none" xmlns="http://www.w3.org/2000/svg">
<path d="M10.0323 2.67941C9.18337 1.82046 3.66598 2.24995 2.39271 4.39728C1.11945 6.54461 2.13334 12.6047 2.39271 13.8455C2.65208 15.0863 3.63051 18.3952 7.8866 22.738C12.1427 27.0808 17.0942 28.168 17.0942 28.168C17.0942 28.168 23.9653 29.4443 26.1076 28.168C28.2499 26.8918 28.6784 21.3614 27.8215 20.5105C26.9645 19.6595 21.8231 18.8088 20.9661 18.8088C20.1092 18.8087 18.3321 21.2904 18.3321 21.2904C18.3321 21.2904 15.0311 21.2904 12.1072 18.3634C9.18336 15.4365 9.18345 12.1277 9.18345 12.1277C9.18345 12.1277 11.73 10.4098 11.73 9.55087C11.7299 8.69193 10.8812 3.53835 10.0323 2.67941Z" fill="#161828"/>
</svg>
