<svg width="30" height="31" viewBox="0 0 30 31" fill="none" xmlns="http://www.w3.org/2000/svg">
<path fill-rule="evenodd" clip-rule="evenodd" d="M24.873 6.11213L15.9661 3.29565C15.3378 3.09806 14.6629 3.09806 14.0346 3.29565L5.12773 6.11213C4.91913 6.17336 4.73643 6.30006 4.60731 6.47304C4.47819 6.64602 4.40968 6.85584 4.41218 7.07072C4.41289 10.6766 4.59994 14.2801 4.97261 17.8672C5.55806 23.9646 11.8879 27.8533 15.0003 27.8533C18.1127 27.8533 24.4426 23.9646 25.0081 17.887C25.3892 14.2938 25.583 10.6836 25.5885 7.07072C25.591 6.85584 25.5225 6.64602 25.3934 6.47304C25.2643 6.30006 25.0816 6.17336 24.873 6.11213ZM14.4664 5.97441C14.6859 5.80755 14.9708 5.75291 15.2365 5.82671L22.7473 8.24727C23.1292 8.35335 23.3935 8.70107 23.3935 9.09743C23.3935 11.2665 23.381 16.1462 22.9227 18.3288C22.9109 18.3847 22.8938 18.4394 22.8714 18.4921C21.1524 22.5442 17.0464 24.4352 15.3365 25.1398C15.0643 25.2519 14.7541 25.2209 14.5095 25.0572C14.2648 24.8934 14.118 24.6184 14.118 24.324V6.67687C14.118 6.40114 14.2469 6.14126 14.4664 5.97441ZM15.8827 7.83773V22.9578C17.6627 22.0746 20.0687 20.4981 21.213 17.8816C21.5926 15.9834 21.5492 12.2035 21.618 9.76511L15.8827 7.83773ZM10.0646 8.36553C10.5099 8.16761 10.7104 7.64618 10.5125 7.20087C10.3146 6.75556 9.79318 6.55501 9.34787 6.75292L6.70081 7.92939C6.36503 8.07863 6.15688 8.42034 6.17832 8.78717L6.41896 12.9048C6.44739 13.3913 6.86481 13.7626 7.35129 13.7342C7.83777 13.7058 8.20909 13.2883 8.18066 12.8019L7.97565 9.29394L10.0646 8.36553Z" fill="#161828"/>
</svg>
