<svg width="30" height="31" viewBox="0 0 30 31" fill="none" xmlns="http://www.w3.org/2000/svg">
<path d="M28.7623 4.24779C28.6369 4.14145 28.4843 4.07033 28.3208 4.04205C28.1573 4.01376 27.9889 4.02937 27.8338 4.0872C22.8973 5.8652 7.72366 11.4286 1.51785 13.6655C1.32723 13.7348 1.16358 13.8605 1.04978 14.025C0.935976 14.1896 0.877721 14.3847 0.883162 14.5832C0.879845 14.7891 0.945895 14.9905 1.07117 15.1563C1.19644 15.322 1.37402 15.4431 1.57661 15.5009C4.36218 16.3153 8.01749 17.4509 8.01749 17.4509C8.01749 17.4509 9.72174 22.3835 10.615 24.9874C10.666 25.1471 10.7573 25.2917 10.8805 25.4079C11.0038 25.5242 11.1549 25.6084 11.3202 25.6527C11.487 25.6918 11.661 25.6903 11.827 25.6483C11.9931 25.6063 12.1459 25.5251 12.2722 25.4118L15.9158 22.0623C15.9158 22.0623 20.1118 25.0677 22.486 26.7195C22.6733 26.8486 22.8902 26.9308 23.1177 26.9588C23.3452 26.9868 23.5763 26.9598 23.7906 26.8801C24.0043 26.8016 24.1947 26.6725 24.3445 26.5043C24.4943 26.336 24.5988 26.134 24.6486 25.9165C25.6594 21.2364 28.1394 9.37533 29.0914 5.17694C29.1339 5.00758 29.1255 4.82984 29.0672 4.66503C29.0088 4.50022 28.9029 4.35535 28.7623 4.24779V4.24779ZM23.9316 8.61825L11.9666 19.0913L11.52 23.1176L9.54544 16.7627L23.532 8.05617C23.5995 8.01046 23.6826 7.99209 23.7637 8.00493C23.8448 8.01777 23.9176 8.06081 23.9669 8.12499C24.0019 8.15759 24.0291 8.19731 24.0466 8.24134C24.064 8.28536 24.0713 8.33261 24.068 8.3797C24.0646 8.4268 24.0506 8.4726 24.0271 8.51383C24.0035 8.55506 23.9709 8.59071 23.9316 8.61825V8.61825Z" fill="#161828"/>
</svg>
