<svg width="30" height="31" viewBox="0 0 30 31" fill="none" xmlns="http://www.w3.org/2000/svg">
<path d="M2.58521 8.93334L14.092 15.8374C14.6509 16.1727 15.349 16.1727 15.9079 15.8374L27.4147 8.93334C27.9237 8.6279 28.2352 8.07775 28.2352 7.48407C28.2352 6.55064 27.4785 5.79395 26.5451 5.79395H3.45477C2.52134 5.79395 1.76465 6.55064 1.76465 7.48407C1.76465 8.07775 2.07614 8.6279 2.58521 8.93334Z" fill="#161828"/>
<path d="M4.43729 11.8093L14.092 17.6021C14.6509 17.9374 15.349 17.9374 15.9079 17.6021L25.5626 11.8093C26.7388 11.1036 28.2352 11.9508 28.2352 13.3225V23.441C28.2352 24.4156 27.4452 25.2057 26.4705 25.2057H3.52935C2.55473 25.2057 1.76465 24.4156 1.76465 23.441V13.3225C1.76465 11.9508 3.26107 11.1036 4.43729 11.8093Z" fill="#161828"/>
</svg>
