<svg width="30" height="31" viewBox="0 0 30 31" fill="none" xmlns="http://www.w3.org/2000/svg">
<path fill-rule="evenodd" clip-rule="evenodd" d="M12.3525 19.1815V21.9977C12.3525 23.504 13.587 24.7251 15.1098 24.7251H19.7973L25.752 26.8998C26.473 27.1673 27.2422 26.64 27.2422 25.8783V24.7251C28.765 24.7251 29.9995 23.504 29.9995 21.9977V13.8153C29.9995 12.309 28.765 11.0879 27.2422 11.0879H21.176V16.151C21.176 17.8247 19.6946 19.1815 17.8672 19.1815H12.3525Z" fill="#161828"/>
<path fill-rule="evenodd" clip-rule="evenodd" d="M19.4121 6.75674C19.4121 5.25042 18.0541 4.0293 16.379 4.0293H3.03343C1.3583 4.0293 0.000343204 5.25042 0.000343204 6.75674V14.9391C0.000343204 16.4454 1.3583 17.6665 3.03343 17.6665V18.8197C3.03343 19.5814 3.87951 20.1087 4.67266 19.8412L11.2228 17.6665H16.379C18.0541 17.6665 19.4121 16.4454 19.4121 14.9391V6.75674Z" fill="#161828"/>
</svg>
