<svg width="30" height="31" viewBox="0 0 30 31" fill="none" xmlns="http://www.w3.org/2000/svg">
<path fill-rule="evenodd" clip-rule="evenodd" d="M0.882812 7.54168C0.882812 5.11482 2.85803 3.14746 5.29458 3.14746H24.7063C27.1429 3.14746 29.1181 5.11482 29.1181 7.54168V20.7243C29.1181 23.1512 27.1429 25.1185 24.7063 25.1185V26.9764C24.7063 28.2036 23.4757 29.0531 22.322 28.6222L12.7946 25.1185H5.29458C2.85803 25.1185 0.882812 23.1512 0.882812 20.7243V7.54168ZM6.61284 7.54168C5.88478 7.54168 5.29458 8.13189 5.29458 8.85994C5.29458 9.588 5.88478 10.1782 6.61284 10.1782H22.5057C23.2338 10.1782 23.824 9.588 23.824 8.85994C23.824 8.13189 23.2338 7.54168 22.5057 7.54168H6.61284ZM5.29458 14.133C5.29458 13.4049 5.88478 12.8147 6.61284 12.8147H23.3881C24.1161 12.8147 24.7063 13.4049 24.7063 14.133C24.7063 14.8611 24.1161 15.4513 23.3881 15.4513H6.61284C5.88478 15.4513 5.29458 14.8611 5.29458 14.133ZM6.61284 18.0878C5.88478 18.0878 5.29458 18.678 5.29458 19.4061C5.29458 20.1341 5.88478 20.7243 6.61284 20.7243H12.7998C13.5279 20.7243 14.1181 20.1341 14.1181 19.4061C14.1181 18.678 13.5279 18.0878 12.7998 18.0878H6.61284Z" fill="#161828"/>
</svg>
