<svg width="30" height="31" viewBox="0 0 30 31" fill="none" xmlns="http://www.w3.org/2000/svg">
<path d="M27.7676 15.6415C27.7407 13.8158 27.3185 12.0176 26.5299 10.3707C25.7414 8.7238 24.6052 7.26741 23.1997 6.10178C21.7942 4.93616 20.1527 4.08901 18.3883 3.61868C16.624 3.14834 14.7786 3.066 12.9793 3.37732C11.8775 2.68943 10.6128 2.30657 9.31443 2.2679C8.01609 2.22923 6.73077 2.53613 5.58997 3.15721C4.44918 3.7783 3.49385 4.69127 2.82172 5.80272C2.1496 6.91418 1.7848 8.18423 1.76465 9.48293C1.76476 10.7689 2.1123 12.031 2.77053 13.1357C2.60007 13.9601 2.51433 14.7997 2.51465 15.6415C2.52619 17.288 2.86195 18.9161 3.50275 20.4328C4.14354 21.9495 5.07683 23.3252 6.24931 24.4812C7.42179 25.6373 8.81051 26.5511 10.3362 27.1704C11.8618 27.7898 13.4946 28.1026 15.1411 28.091C15.9172 28.079 16.6907 27.9993 17.4529 27.8527C18.5158 28.4266 19.7038 28.7296 20.9117 28.735C21.8665 28.742 22.8133 28.5609 23.6981 28.2019C24.5829 27.843 25.3883 27.3133 26.0683 26.6431C26.7484 25.9729 27.2898 25.1753 27.6616 24.2959C28.0334 23.4165 28.2283 22.4725 28.2352 21.5177C28.2382 20.4052 27.9782 19.3078 27.4764 18.3149C27.6676 17.4366 27.7652 16.5404 27.7676 15.6415V15.6415ZM21.5911 21.5883C20.9342 22.4592 20.0439 23.1262 19.0235 23.5117C17.7646 23.9894 16.4255 24.2201 15.0793 24.1911C13.5291 24.2427 11.989 23.922 10.5882 23.2559C9.75883 22.825 9.04478 22.2018 8.50582 21.4383C8.00676 20.7916 7.72288 20.0048 7.69405 19.1884C7.69325 18.9663 7.7401 18.7467 7.83142 18.5442C7.92275 18.3418 8.05644 18.1613 8.22347 18.0149C8.58347 17.6851 9.05911 17.5107 9.54699 17.5296C9.95004 17.5254 10.3424 17.6593 10.6588 17.909C10.9797 18.2056 11.2299 18.5705 11.3911 18.9766C11.5827 19.4283 11.8286 19.855 12.1235 20.2472C12.407 20.5957 12.7701 20.8711 13.1823 21.0501C13.7611 21.2871 14.3837 21.3984 15.0088 21.3765C15.9047 21.4168 16.7924 21.1895 17.5588 20.7236C17.8429 20.5731 18.0823 20.3503 18.2527 20.0776C18.4232 19.8049 18.5186 19.4921 18.5293 19.1708C18.5411 18.95 18.5037 18.7295 18.4198 18.525C18.3359 18.3205 18.2075 18.1372 18.044 17.9884C17.6441 17.644 17.17 17.3964 16.6588 17.265C16.0852 17.0885 15.2999 16.8944 14.3382 16.7003C13.2082 16.4733 12.1008 16.1456 11.0293 15.7209C10.1762 15.3866 9.41855 14.8472 8.82347 14.1504C8.27042 13.4379 7.98333 12.5549 8.0117 11.6534C8.00514 10.7382 8.31707 9.84927 8.89405 9.13883C9.53373 8.35411 10.385 7.76926 11.347 7.45361C12.5399 7.04974 13.7937 6.8557 15.0529 6.88011C16.0461 6.8636 17.0363 6.99443 17.9911 7.26833C18.7447 7.47926 19.4534 7.82612 20.0823 8.29181C20.5827 8.65282 21.0007 9.11595 21.3087 9.65057C21.5601 10.0889 21.6967 10.5836 21.7058 11.0887C21.7004 11.3111 21.6508 11.5301 21.5599 11.7331C21.469 11.9361 21.3387 12.1189 21.1764 12.271C21.0078 12.4432 20.8057 12.5789 20.5827 12.67C20.3596 12.761 20.1202 12.8054 19.8793 12.8004C19.4898 12.8279 19.1037 12.7118 18.794 12.474C18.4912 12.1827 18.2353 11.8464 18.0352 11.477C17.7603 10.9435 17.3754 10.4743 16.9058 10.1006C16.2693 9.72637 15.5331 9.55695 14.797 9.61528C14.0311 9.58111 13.2715 9.76794 12.6088 10.1535C12.3839 10.2644 12.1926 10.4332 12.0546 10.6426C11.9165 10.8519 11.8368 11.0942 11.8235 11.3446C11.8186 11.6088 11.9095 11.8658 12.0793 12.0681C12.2859 12.308 12.5417 12.5006 12.8293 12.6328C13.1551 12.7927 13.4947 12.9227 13.844 13.021C14.197 13.1181 14.7882 13.2592 15.6088 13.4445C16.6323 13.6651 17.5764 13.9033 18.4058 14.168C19.1629 14.3959 19.8867 14.7222 20.5587 15.1386C21.1495 15.5081 21.6403 16.0171 21.9882 16.6209C22.3448 17.2938 22.5211 18.0477 22.4999 18.809C22.5071 19.8054 22.1982 20.7785 21.6176 21.5883H21.5911Z" fill="#161828"/>
</svg>
