<svg width="30" height="31" viewBox="0 0 30 31" fill="none" xmlns="http://www.w3.org/2000/svg">
<path d="M13.2358 19.9117C13.2358 19.4244 13.6308 19.0294 14.1181 19.0294H15.8828C16.3701 19.0294 16.7652 19.4244 16.7652 19.9117V21.6764C16.7652 22.1637 16.3701 22.5588 15.8828 22.5588H14.1181C13.6308 22.5588 13.2358 22.1637 13.2358 21.6764V19.9117Z" fill="#161828"/>
<path fill-rule="evenodd" clip-rule="evenodd" d="M7.94164 5.79406C7.94164 3.84482 9.52181 2.26465 11.471 2.26465H18.5299C20.4791 2.26465 22.0593 3.84482 22.0593 5.79406H27.3534C28.328 5.79406 29.1181 6.58415 29.1181 7.55877V15.0849C29.1181 15.8568 28.6165 16.5391 27.8798 16.7693L18.5299 19.6911V19.0294C18.5299 18.0547 17.7398 17.2646 16.7652 17.2646H13.2358C12.2611 17.2646 11.471 18.0547 11.471 19.0294V19.6911L2.12115 16.7693C1.38443 16.5391 0.882812 15.8568 0.882812 15.0849V7.55877C0.882812 6.58415 1.6729 5.79406 2.64752 5.79406H7.94164ZM11.471 21.4558V22.5588C11.471 23.5334 12.2611 24.3235 13.2358 24.3235H16.7652C17.7398 24.3235 18.5299 23.5334 18.5299 22.5588V21.4558L26.827 18.863C27.9634 18.5079 29.1181 19.3568 29.1181 20.5473V26.9705C29.1181 27.9452 28.328 28.7352 27.3534 28.7352H2.64752C1.6729 28.7352 0.882812 27.9452 0.882812 26.9705V20.5473C0.882812 19.3568 2.03754 18.5079 3.17389 18.863L11.471 21.4558ZM9.70634 5.79406C9.70634 4.81944 10.4964 4.02935 11.471 4.02935H18.5299C19.5045 4.02935 20.2946 4.81944 20.2946 5.79406H9.70634Z" fill="#161828"/>
</svg>
